<svg width="20" height="20" viewBox="0 0 20 20" fill="none" xmlns="http://www.w3.org/2000/svg">
<g clip-path="url(#clip0_320_1943)">
<path d="M2 4C1.34219 4 0.8 4.54219 0.8 5.2V11.275C0.801562 11.3 0.80625 11.325 0.8125 11.35C0.8125 11.3547 0.8125 11.3578 0.8125 11.3625C0.632812 11.6453 0.485938 11.9469 0.375 12.275C0.126562 13.0078 0.0203125 13.8484 0 14.8V15.2C0 15.2125 0 15.225 0 15.2375V20H2.8V18.4C2.8 18.0672 2.88125 17.8938 2.9875 17.7875C3.09375 17.6813 3.26719 17.6 3.6 17.6H16.4C16.7328 17.6 16.9062 17.6813 17.0125 17.7875C17.1187 17.8938 17.2 18.0672 17.2 18.4V20H20V15.2625C20.0016 15.2422 20.0016 15.2203 20 15.2C20 15.0625 20.0031 14.9328 20 14.8C19.9797 13.8484 19.8734 13.0078 19.625 12.275C19.5141 11.95 19.3656 11.6547 19.1875 11.375C19.1953 11.3422 19.2 11.3094 19.2 11.275V5.2C19.2 4.54219 18.6578 4 18 4H2ZM2 4.8H18C18.225 4.8 18.4 4.975 18.4 5.2V10.4625C18.3016 10.3797 18.1969 10.3 18.0875 10.225C17.8203 10.0406 17.5297 9.86875 17.2 9.725V8C17.2 7.71875 17.0156 7.5 16.8125 7.3625C16.6094 7.225 16.3609 7.12969 16.05 7.05C15.4281 6.89063 14.5547 6.8 13.4 6.8C12.2453 6.8 11.3719 6.89063 10.75 7.05C10.4469 7.12813 10.2 7.21719 10 7.35C9.8 7.21719 9.55313 7.12813 9.25 7.05C8.62813 6.89063 7.75469 6.8 6.6 6.8C5.44531 6.8 4.57188 6.89063 3.95 7.05C3.63906 7.12969 3.39063 7.225 3.1875 7.3625C2.98438 7.5 2.8 7.71875 2.8 8V9.725C2.47031 9.86875 2.17969 10.0406 1.9125 10.225C1.80313 10.3 1.69844 10.3797 1.6 10.4625V5.2C1.6 4.975 1.775 4.8 2 4.8ZM6.6 7.6C7.7125 7.6 8.5375 7.69375 9.05 7.825C9.30625 7.89063 9.48281 7.97031 9.5625 8.025C9.59531 8.04688 9.59688 8.05 9.6 8.05V8.8C6.97031 8.81719 5.02344 9.01406 3.6 9.45V8.05C3.60313 8.05 3.60469 8.04688 3.6375 8.025C3.71719 7.97031 3.89375 7.89063 4.15 7.825C4.6625 7.69375 5.4875 7.6 6.6 7.6ZM13.4 7.6C14.5125 7.6 15.3375 7.69375 15.85 7.825C16.1063 7.89063 16.2828 7.97031 16.3625 8.025C16.3953 8.04688 16.3969 8.05 16.4 8.05V9.45C14.9766 9.01406 13.0297 8.81719 10.4 8.8V8.05C10.4031 8.05 10.4047 8.04688 10.4375 8.025C10.5172 7.97031 10.6938 7.89063 10.95 7.825C11.4625 7.69375 12.2875 7.6 13.4 7.6ZM9.925 9.6C9.96719 9.60625 10.0078 9.60625 10.05 9.6C10.0625 9.6 10.075 9.6 10.0875 9.6C14.0906 9.60625 16.4031 10.025 17.6375 10.875C18.2594 11.3031 18.6359 11.8344 18.875 12.5375C19.0828 13.15 19.1672 13.9047 19.1875 14.8H0.8125C0.832812 13.9047 0.917188 13.15 1.125 12.5375C1.36406 11.8344 1.74063 11.3031 2.3625 10.875C3.59688 10.0234 5.91406 9.60469 9.925 9.6ZM0.8 15.6H19.2V19.2H18V18.4C18 17.9328 17.8813 17.5063 17.5875 17.2125C17.2938 16.9187 16.8672 16.8 16.4 16.8H3.6C3.13281 16.8 2.70625 16.9187 2.4125 17.2125C2.11875 17.5063 2 17.9328 2 18.4V19.2H0.8V15.6Z" fill="#16182A"/>
</g>
<defs>
<clipPath id="clip0_320_1943">
<rect width="20" height="20" fill="white"/>
</clipPath>
</defs>
</svg>
