<svg width="80" height="80" viewBox="0 0 80 80" fill="none" xmlns="http://www.w3.org/2000/svg">
<rect width="80" height="80" rx="20" fill="#A3DA5F"/>
<path fill-rule="evenodd" clip-rule="evenodd" d="M35.4201 46.5077L35.3312 46.41C34.5956 45.6833 33.8179 45.1366 33.0268 44.7388C39.1934 37.7033 52.8068 23.7855 57.029 23.6144C57.1667 23.6211 57.3134 23.6211 57.4979 23.8055C57.5667 23.8744 57.569 24.05 57.5667 24.1455C57.4023 28.3166 43.4645 41.9811 36.5023 48.11C36.2068 47.5833 35.8534 47.0522 35.4201 46.5077ZM35.0268 52.2944C33.9068 54.79 28.7379 55.9611 25.3734 56.39C25.9201 54.9944 26.4934 52.8788 26.4934 50.1566C26.4934 48.6633 27.5534 47.0944 28.9601 46.5055C29.3712 46.3344 29.8001 46.25 30.2356 46.25C31.3756 46.25 32.5756 46.8277 33.7223 47.9433C35.0979 49.6922 35.5379 51.1544 35.0268 52.2944ZM25.7845 23.7611L27.9245 25.9011L25.0512 28.7766L22.8957 26.6211L25.7845 23.7611ZM59.7868 24.2344C59.8245 23.2166 59.4179 22.5833 58.949 22.1144C58.6001 21.7633 57.9445 21.3455 56.9401 21.3944C52.2645 21.5855 41.6045 32.2233 35.2756 38.9988L26.6223 30.3477L29.4957 27.4722L36.209 34.1855L37.7801 32.6144L26.5757 21.4077C26.1445 20.9766 25.4468 20.9744 25.0068 21.4033L20.5401 25.8255C20.329 26.0344 20.209 26.3166 20.209 26.6144C20.209 26.91 20.3268 27.1944 20.5357 27.4011L33.7645 40.63C32.3112 42.2122 31.2245 43.4344 30.6823 44.0544C29.809 43.9811 28.9379 44.1077 28.1045 44.4544C25.8468 45.3966 24.2712 47.7411 24.2712 50.1566C24.2712 54.4944 22.5957 57.0344 22.5845 57.0544L21.3045 58.9166L23.5601 58.7922C24.7134 58.73 34.8868 58.0344 37.0534 53.2055C37.4601 52.2988 37.549 51.3322 37.3512 50.3122C38.529 49.27 41.6023 46.5166 45.1223 43.1011L55.7223 53.6988V56.5722H52.849L43.729 47.4544L42.1579 49.0255L51.929 58.7944H57.9445V52.7788L46.7068 41.5433C52.8623 35.4433 59.6401 27.9166 59.7868 24.2344Z" fill="white"/>
</svg>
