<svg width="140" height="140" viewBox="0 0 140 140" fill="none" xmlns="http://www.w3.org/2000/svg">
<circle cx="70" cy="70" r="70" fill="#A3DA5F"/>
<path d="M68.5498 110.625C46.834 110.225 29.5539 92.2973 29.9535 70.5816C30.3532 48.8658 48.2813 31.5857 69.997 31.9853C91.7128 32.385 108.993 50.3131 108.593 72.0289C108.194 93.7446 90.2655 111.025 68.5498 110.625Z" fill="#A3DA5F"/>
<path d="M54.431 113.365L49.4371 123.746L46.1857 122.182C46.0896 122.136 45.9129 122.048 45.6557 121.918C45.3937 121.786 45.1506 121.646 44.9265 121.496C44.1628 121.005 43.6202 120.386 43.2987 119.639C42.9724 118.89 42.8454 118.078 42.9179 117.201C42.9881 116.329 43.2347 115.454 43.6578 114.574C44.0832 113.69 44.6157 112.946 45.2553 112.342C45.8926 111.743 46.6057 111.337 47.3944 111.125C48.176 110.915 48.9972 110.955 49.8579 111.245C50.1144 111.327 50.376 111.429 50.6427 111.551C50.9045 111.671 51.0835 111.754 51.1796 111.801L54.431 113.365ZM52.1981 114.057L50.4895 113.235C50.3261 113.157 50.1291 113.068 49.8986 112.969C49.6681 112.87 49.4594 112.793 49.2725 112.739C48.6953 112.585 48.1577 112.608 47.6598 112.806C47.1548 113.007 46.6993 113.333 46.2935 113.783C45.8877 114.232 45.5426 114.753 45.2583 115.344C44.9647 115.954 44.7723 116.557 44.6812 117.153C44.5878 117.753 44.6225 118.308 44.7854 118.819C44.9411 119.331 45.2554 119.761 45.7282 120.107C45.885 120.223 46.0777 120.34 46.306 120.456C46.5273 120.574 46.7172 120.671 46.8758 120.747L48.5844 121.569L52.1981 114.057Z" fill="white"/>
<path d="M42.6944 106.939L35.1282 115.626L29.9824 111.144L31.0805 109.883L34.9655 113.267L37.0988 110.818L33.9377 108.065L35.0411 106.798L38.2022 109.551L41.4336 105.841L42.6944 106.939Z" fill="white"/>
<path d="M30.0554 92.4362L19.4299 96.8869L17.6311 92.5924C17.5878 92.4891 17.5391 92.3591 17.4851 92.2025C17.4261 92.048 17.3801 91.8967 17.347 91.7486C17.1932 91.1192 17.1888 90.5428 17.3339 90.0194C17.4769 89.4912 17.7433 89.0297 18.1332 88.6352C18.523 88.2406 19.0032 87.9238 19.5738 87.6848C20.1494 87.4437 20.7145 87.3226 21.2692 87.3216C21.8238 87.3205 22.3396 87.4543 22.8164 87.723C23.2911 87.9867 23.6989 88.3941 24.0396 88.9453C24.117 89.0748 24.1936 89.2162 24.2693 89.3695C24.343 89.5179 24.4005 89.6412 24.4417 89.7396L25.5946 92.4919L29.4094 90.894L30.0554 92.4362ZM24.1336 93.1039L23.0054 90.4106C22.9642 90.3122 22.914 90.2061 22.8547 90.0921C22.7933 89.9733 22.7277 89.8649 22.6578 89.767C22.4521 89.483 22.2107 89.2864 21.9336 89.1769C21.6515 89.0696 21.3626 89.0287 21.0669 89.0543C20.7711 89.0798 20.4929 89.1472 20.2322 89.2564C19.9715 89.3657 19.7307 89.5156 19.51 89.7064C19.2843 89.8993 19.1132 90.1328 18.9968 90.4071C18.8755 90.6834 18.8439 90.9944 18.9019 91.3402C18.9178 91.4608 18.9465 91.5846 18.9882 91.7117C19.0278 91.8339 19.0682 91.9442 19.1094 92.0426L20.2375 94.7358L24.1336 93.1039Z" fill="white"/>
<path d="M25.6906 80.7348L14.2339 81.9412L13.8561 78.353C13.8449 78.2469 13.8269 78.0504 13.8021 77.7634C13.7767 77.4712 13.7685 77.1905 13.7777 76.9214C13.7947 76.0133 14.0363 75.2263 14.5025 74.5605C14.9681 73.8894 15.5928 73.3543 16.3767 72.9554C17.1553 72.557 18.0299 72.3067 19.0005 72.2045C19.9764 72.1017 20.8893 72.1638 21.7391 72.3907C22.5835 72.6182 23.3034 73.0116 23.8985 73.5711C24.4879 74.1257 24.8854 74.8454 25.0912 75.73C25.1563 75.9913 25.2068 76.2676 25.2428 76.5587C25.2783 76.8446 25.3016 77.0405 25.3128 77.1466L25.6906 80.7348ZM23.9281 79.1989L23.7295 77.3133C23.7105 77.133 23.6826 76.9187 23.6457 76.6706C23.6089 76.4224 23.5645 76.2045 23.5126 76.0169C23.3397 75.4452 23.0381 74.9997 22.6076 74.6803C22.1713 74.3563 21.6551 74.1398 21.0591 74.0309C20.4631 73.9221 19.8389 73.902 19.1865 73.9707C18.5129 74.0416 17.8989 74.1948 17.3445 74.4301C16.7848 74.6661 16.3306 74.9874 15.9819 75.3941C15.6274 75.7961 15.4273 76.2891 15.3815 76.8731C15.3645 77.068 15.3667 77.293 15.3882 77.5481C15.4039 77.7986 15.4209 78.0113 15.4394 78.1863L15.6379 80.0719L23.9281 79.1989Z" fill="white"/>
<path d="M25.0065 67.2546L13.6425 65.3652L14.7617 58.6336L16.411 58.9078L15.566 63.9901L18.7701 64.5228L19.4576 60.3875L21.1148 60.6631L20.4273 64.7983L25.2807 65.6052L25.0065 67.2546Z" fill="white"/>
<path d="M30.7646 48.9118L21.4247 42.1681L24.1503 38.3932C24.2159 38.3024 24.3014 38.1931 24.4068 38.0653C24.5079 37.9344 24.613 37.8162 24.722 37.7107C25.1788 37.2512 25.6683 36.9468 26.1905 36.7976C26.7158 36.644 27.2484 36.6306 27.7884 36.7574C28.3284 36.8841 28.8492 37.1286 29.3508 37.4907C29.8567 37.856 30.2548 38.275 30.545 38.7477C30.8352 39.2204 30.9901 39.7302 31.0096 40.2771C31.0322 40.8197 30.8973 41.3801 30.6048 41.9583C30.5347 42.0919 30.454 42.231 30.3628 42.3756C30.2746 42.5159 30.1993 42.6293 30.1369 42.7158L28.3901 45.135L31.7433 47.5562L30.7646 48.9118ZM27.1059 44.2078L28.8152 41.8404C28.8776 41.7539 28.942 41.6556 29.0083 41.5456C29.0777 41.4313 29.1359 41.3187 29.183 41.208C29.3179 40.8844 29.3598 40.5759 29.3086 40.2824C29.2531 39.9857 29.1373 39.7179 28.9612 39.4789C28.7851 39.24 28.5825 39.0377 28.3533 38.8723C28.1241 38.7068 27.8706 38.5796 27.5926 38.4908C27.3104 38.3988 27.0219 38.3747 26.7272 38.4185C26.4281 38.4591 26.1463 38.5944 25.8816 38.8243C25.787 38.9007 25.6963 38.9898 25.6096 39.0917C25.526 39.1892 25.453 39.2812 25.3906 39.3677L23.6812 41.7351L27.1059 44.2078Z" fill="white"/>
<path d="M38.4552 39.0774L31.4444 29.9363L34.3073 27.7406C34.392 27.6756 34.5502 27.5577 34.782 27.3866C35.018 27.2123 35.2531 27.0589 35.4874 26.9262C36.2708 26.4666 37.0681 26.2617 37.8794 26.3116C38.6949 26.3583 39.4774 26.6118 40.2269 27.072C40.9732 27.528 41.6433 28.1432 42.2373 28.9177C42.8345 29.6964 43.2582 30.5073 43.5083 31.3506C43.7552 32.1895 43.7955 33.0089 43.6292 33.8086C43.4638 34.6008 43.0576 35.3156 42.4106 35.953C42.2217 36.1449 42.0125 36.3323 41.783 36.515C41.5577 36.6945 41.4028 36.8167 41.3181 36.8816L38.4552 39.0774ZM38.8448 36.7723L40.3493 35.6184C40.4932 35.508 40.6613 35.3724 40.8537 35.2113C41.0461 35.0503 41.2088 34.8987 41.3416 34.7565C41.739 34.3106 41.9615 33.8207 42.0091 33.2868C42.0576 32.7454 41.9728 32.1922 41.7544 31.627C41.536 31.0619 41.2272 30.5191 40.828 29.9985C40.4158 29.4611 39.9646 29.0174 39.4744 28.6674C38.981 28.3132 38.4698 28.0937 37.9408 28.0087C37.4129 27.9162 36.8879 28.0029 36.3659 28.2688C36.1909 28.3561 36.0001 28.4755 35.7938 28.627C35.5884 28.7711 35.4158 28.8967 35.2762 29.0038L33.7717 30.1577L38.8448 36.7723Z" fill="white"/>
<path d="M49.3781 31.5448L45.0068 20.8864L51.3204 18.297L51.9549 19.8439L47.1882 21.7989L48.4206 24.8039L52.2991 23.2133L52.9366 24.7676L49.0581 26.3583L50.9251 30.9103L49.3781 31.5448Z" fill="white"/>
<path d="M68.1418 26.7796L68.9754 15.2898L73.6192 15.6267C73.7309 15.6349 73.8688 15.6502 74.033 15.6728C74.1975 15.6901 74.3532 15.7174 74.5003 15.7548C75.1312 15.9022 75.6474 16.1589 76.0486 16.5249C76.4551 16.8913 76.7463 17.3375 76.922 17.8636C77.0977 18.3897 77.1632 18.9613 77.1185 19.5783C77.0733 20.2007 76.9258 20.7595 76.676 21.2547C76.4262 21.7499 76.0737 22.1494 75.6185 22.4533C75.1686 22.7576 74.6209 22.9371 73.9752 22.9918C73.8247 23.0023 73.664 23.0067 73.493 23.005C73.3273 23.0036 73.1913 22.9991 73.0849 22.9914L70.1087 22.7755L69.8095 26.9006L68.1418 26.7796ZM70.2233 21.1956L73.1357 21.4069C73.2421 21.4146 73.3595 21.4178 73.4879 21.4164C73.6217 21.4154 73.748 21.4059 73.867 21.3878C74.2132 21.3327 74.4978 21.2063 74.7207 21.0086C74.944 20.8055 75.111 20.5663 75.2219 20.2909C75.3328 20.0156 75.3985 19.7369 75.4189 19.455C75.4394 19.1731 75.4144 18.8905 75.3441 18.6074C75.2741 18.3189 75.1431 18.0607 74.9511 17.8329C74.7594 17.5998 74.4963 17.4309 74.1616 17.3265C74.0469 17.286 73.9235 17.2557 73.7913 17.2354C73.6644 17.2155 73.5477 17.2017 73.4413 17.194L70.529 16.9827L70.2233 21.1956Z" fill="white"/>
<path d="M80.5632 28.1503L84.6871 17.3938L88.056 18.6853C88.1556 18.7235 88.3389 18.7967 88.6059 18.9047C88.8779 19.0147 89.1317 19.1349 89.3673 19.2652C90.1688 19.6924 90.7604 20.2648 91.1422 20.9824C91.529 21.7018 91.7222 22.5013 91.722 23.3809C91.7237 24.2555 91.5499 25.1484 91.2005 26.0597C90.8492 26.976 90.3796 27.7613 89.7918 28.4156C89.2059 29.0648 88.5286 29.5277 87.76 29.8043C86.9983 30.0777 86.1766 30.1054 85.2949 29.8873C85.0326 29.8267 84.7635 29.7464 84.4877 29.6464C84.2169 29.5482 84.0316 29.4801 83.9321 29.4419L80.5632 28.1503ZM82.7316 27.2767L84.502 27.9554C84.6713 28.0203 84.8749 28.0927 85.1127 28.1724C85.3506 28.2522 85.5649 28.3115 85.7556 28.3504C86.3435 28.4558 86.8774 28.3892 87.3573 28.1505C87.8441 27.9088 88.2713 27.547 88.6387 27.0653C89.0062 26.5836 89.3073 26.0365 89.5422 25.4239C89.7847 24.7915 89.9268 24.1749 89.9687 23.574C90.0124 22.9682 89.9322 22.4177 89.728 21.9224C89.5306 21.4241 89.1821 21.022 88.6825 20.7162C88.5166 20.6126 88.3151 20.5125 88.0779 20.4159C87.8477 20.3162 87.6504 20.2348 87.4861 20.1718L85.7157 19.4931L82.7316 27.2767Z" fill="white"/>
<path d="M92.6782 33.4969L99.49 24.2066L104.993 28.2417L104.005 29.59L99.8497 26.5436L97.9292 29.163L101.31 31.6417L100.316 32.9966L96.9358 30.5178L94.0265 34.4855L92.6782 33.4969Z" fill="white"/>
<path d="M106.498 46.8191L116.705 41.479L118.863 45.6045C118.915 45.7037 118.975 45.8291 119.042 45.9805C119.114 46.1295 119.173 46.2763 119.218 46.421C119.425 47.035 119.479 47.609 119.379 48.1428C119.281 48.6813 119.055 49.1638 118.7 49.5901C118.346 50.0165 117.894 50.3731 117.346 50.6599C116.793 50.9491 116.24 51.1179 115.688 51.1662C115.135 51.2145 114.61 51.1252 114.112 50.8982C113.616 50.6759 113.175 50.3046 112.789 49.7845C112.701 49.6621 112.612 49.5277 112.524 49.3815C112.438 49.2399 112.37 49.1219 112.321 49.0274L110.937 46.3833L107.273 48.3006L106.498 46.8191ZM112.341 45.6491L113.694 48.2364C113.744 48.3309 113.803 48.4324 113.872 48.5409C113.943 48.6541 114.018 48.7565 114.096 48.8481C114.325 49.1134 114.582 49.2888 114.868 49.3742C115.158 49.4572 115.449 49.4733 115.742 49.4226C116.034 49.3719 116.306 49.281 116.556 49.15C116.806 49.019 117.034 48.849 117.237 48.6401C117.446 48.4288 117.596 48.1815 117.689 47.8983C117.786 47.6126 117.791 47.3 117.704 46.9605C117.678 46.8417 117.639 46.7207 117.586 46.5977C117.536 46.4793 117.487 46.3729 117.437 46.2783L116.084 43.691L112.341 45.6491Z" fill="white"/>
<path d="M111.939 58.2836L123.261 56.1605L123.926 59.7067C123.946 59.8116 123.98 60.006 124.027 60.2901C124.076 60.5794 124.107 60.8585 124.119 61.1275C124.175 62.034 123.998 62.8378 123.587 63.539C123.176 64.2453 122.597 64.8288 121.847 65.2895C121.103 65.7491 120.252 66.0689 119.292 66.2487C118.328 66.4296 117.413 66.4411 116.548 66.2831C115.688 66.1243 114.939 65.7899 114.3 65.2801C113.668 64.7746 113.214 64.0892 112.938 63.224C112.852 62.9687 112.78 62.6975 112.72 62.4101C112.662 62.1281 112.623 61.9346 112.603 61.8298L111.939 58.2836ZM113.819 59.6728L114.168 61.5364C114.202 61.7146 114.247 61.9259 114.303 62.1703C114.36 62.4147 114.422 62.6283 114.489 62.8112C114.707 63.3671 115.043 63.787 115.498 64.0707C115.959 64.3587 116.491 64.533 117.094 64.5936C117.697 64.6542 118.32 64.6241 118.965 64.5032C119.631 64.3783 120.231 64.1764 120.764 63.8972C121.303 63.6171 121.73 63.2603 122.045 62.8269C122.366 62.3977 122.526 61.8902 122.525 61.3044C122.526 61.1088 122.506 60.8847 122.464 60.6321C122.428 60.3838 122.394 60.1731 122.361 60.0001L122.012 58.1366L113.819 59.6728Z" fill="white"/>
<path d="M113.739 71.3708L125.222 72.293L124.676 79.0951L123.009 78.9612L123.421 73.8258L120.184 73.5658L119.848 77.7443L118.174 77.6098L118.509 73.4313L113.605 73.0375L113.739 71.3708Z" fill="white"/>
<path d="M108.56 92.2549L118.435 98.1871L116.038 102.178C115.98 102.274 115.904 102.39 115.81 102.527C115.72 102.666 115.625 102.792 115.525 102.907C115.109 103.403 114.647 103.748 114.139 103.94C113.629 104.138 113.099 104.196 112.55 104.115C112.002 104.034 111.462 103.835 110.932 103.516C110.397 103.195 109.965 102.811 109.636 102.364C109.307 101.918 109.109 101.423 109.044 100.88C108.976 100.341 109.063 99.771 109.305 99.1702C109.364 99.0312 109.433 98.8858 109.511 98.734C109.587 98.5867 109.653 98.4674 109.708 98.376L111.244 95.818L107.699 93.6882L108.56 92.2549ZM112.602 96.6337L111.099 99.1368C111.044 99.2282 110.988 99.3315 110.931 99.4468C110.872 99.5666 110.823 99.6836 110.785 99.7979C110.678 100.132 110.663 100.443 110.738 100.731C110.819 101.022 110.957 101.279 111.152 101.502C111.348 101.725 111.567 101.91 111.809 102.055C112.051 102.201 112.315 102.306 112.599 102.371C112.888 102.439 113.178 102.439 113.468 102.37C113.762 102.305 114.032 102.146 114.276 101.895C114.364 101.811 114.447 101.714 114.525 101.605C114.6 101.501 114.665 101.403 114.72 101.312L116.223 98.8088L112.602 96.6337Z" fill="white"/>
<path d="M101.701 102.77L109.451 111.293L106.782 113.72C106.703 113.792 106.555 113.923 106.339 114.112C106.118 114.306 105.897 114.478 105.674 114.63C104.932 115.154 104.154 115.424 103.342 115.443C102.525 115.464 101.724 115.277 100.939 114.881C100.157 114.489 99.4381 113.932 98.7815 113.21C98.1213 112.484 97.6313 111.711 97.3115 110.892C96.9954 110.076 96.8868 109.263 96.9857 108.452C97.0843 107.649 97.4293 106.903 98.0208 106.214C98.193 106.007 98.3858 105.802 98.5992 105.601C98.8087 105.403 98.9529 105.269 99.0319 105.197L101.701 102.77ZM101.506 105.099L100.103 106.375C99.9687 106.497 99.8125 106.646 99.6342 106.823C99.4559 106.999 99.3065 107.164 99.186 107.317C98.8273 107.794 98.6465 108.301 98.6437 108.837C98.6406 109.38 98.7714 109.925 99.0362 110.47C99.301 111.014 99.6541 111.53 100.095 112.015C100.551 112.516 101.038 112.921 101.556 113.228C102.077 113.54 102.605 113.716 103.139 113.757C103.673 113.805 104.189 113.674 104.686 113.366C104.854 113.264 105.034 113.129 105.227 112.961C105.419 112.8 105.581 112.661 105.711 112.542L107.114 111.267L101.506 105.099Z" fill="white"/>
<path d="M91.3524 111.268L96.5791 121.534L90.4979 124.63L89.7393 123.14L94.3305 120.802L92.8569 117.908L89.1212 119.81L88.3589 118.313L92.0947 116.411L89.8624 112.026L91.3524 111.268Z" fill="white"/>
<path d="M67.2315 115.445L67.3752 126.964L62.7196 127.022C62.6076 127.024 62.4689 127.02 62.3034 127.011C62.138 127.008 61.9805 126.994 61.8308 126.969C61.1896 126.876 60.6536 126.664 60.2228 126.333C59.7866 126.003 59.4587 125.583 59.239 125.073C59.0193 124.564 58.9056 124 58.8979 123.382C58.8901 122.758 58.9896 122.188 59.1966 121.674C59.4035 121.159 59.7209 120.731 60.1486 120.39C60.5711 120.048 61.1016 119.823 61.7403 119.714C61.8894 119.691 62.0492 119.673 62.2197 119.66C62.3849 119.647 62.5208 119.64 62.6275 119.639L65.6112 119.602L65.5596 115.466L67.2315 115.445ZM65.631 121.185L62.7112 121.222C62.6045 121.223 62.4873 121.23 62.3594 121.242C62.2262 121.255 62.1012 121.275 61.9842 121.303C61.6439 121.387 61.371 121.537 61.1657 121.753C60.9605 121.974 60.8143 122.227 60.7271 122.511C60.64 122.794 60.5982 123.078 60.6017 123.36C60.6052 123.643 60.6541 123.922 60.7482 124.199C60.8424 124.48 60.9948 124.726 61.2054 124.937C61.4161 125.153 61.6927 125.299 62.035 125.375C62.1527 125.405 62.2783 125.425 62.4117 125.434C62.5399 125.443 62.6572 125.447 62.7639 125.445L65.6837 125.409L65.631 121.185Z" fill="white"/>
<path d="M76 64C75.1716 64 74.5 64.6716 74.5 65.5C74.5 66.3284 75.1716 67 76 67V64ZM64 67C64.8284 67 65.5 66.3284 65.5 65.5C65.5 64.6716 64.8284 64 64 64V67ZM71.5 58C71.5 57.1716 70.8285 56.5 70 56.5C69.1716 56.5 68.5 57.1716 68.5 58H71.5ZM70 73L68.9394 74.0606C69.5251 74.6464 70.4749 74.6464 71.0607 74.0606L70 73ZM67.3107 68.1894C66.7249 67.6036 65.7751 67.6036 65.1893 68.1894C64.6036 68.7751 64.6036 69.7249 65.1893 70.3106L67.3107 68.1894ZM74.8107 70.3106C75.3964 69.7249 75.3964 68.7751 74.8107 68.1894C74.2249 67.6036 73.2751 67.6036 72.6894 68.1894L74.8107 70.3106ZM80.5 70.33V77.17H83.5V70.33H80.5ZM77.17 80.5H62.83V83.5H77.17V80.5ZM59.5 77.17V70.33H56.5V77.17H59.5ZM76 67H77.17V64H76V67ZM62.83 67H64V64H62.83V67ZM62.83 80.5C61.9506 80.5 61.3828 80.4988 60.9508 80.4629C60.5369 80.4286 60.3839 80.3702 60.3085 80.3311L58.9256 82.9933C59.5005 83.292 60.0997 83.4025 60.7026 83.4526C61.2874 83.5012 62.0009 83.5 62.83 83.5V80.5ZM56.5 77.17C56.5 77.9991 56.4988 78.7126 56.5474 79.2974C56.5974 79.9003 56.708 80.4995 57.0066 81.0744L59.6689 79.6915C59.6298 79.6162 59.5714 79.4632 59.5371 79.0492C59.5012 78.6172 59.5 78.0495 59.5 77.17H56.5ZM60.3085 80.3311C60.0346 80.1887 59.8112 79.9654 59.6689 79.6915L57.0066 81.0744C57.4336 81.8964 58.1037 82.5664 58.9256 82.9933L60.3085 80.3311ZM80.5 77.17C80.5 78.0495 80.4988 78.6172 80.463 79.0492C80.4286 79.4632 80.3703 79.6162 80.3311 79.6915L82.9933 81.0744C83.292 80.4995 83.4025 79.9003 83.4526 79.2974C83.5012 78.7126 83.5 77.9991 83.5 77.17H80.5ZM77.17 83.5C77.9991 83.5 78.7126 83.5012 79.2975 83.4526C79.9003 83.4025 80.4996 83.292 81.0744 82.9933L79.6915 80.3311C79.6162 80.3702 79.4632 80.4286 79.0492 80.4629C78.6172 80.4988 78.0495 80.5 77.17 80.5V83.5ZM80.3311 79.6915C80.1888 79.9654 79.9654 80.1887 79.6915 80.3311L81.0744 82.9933C81.8964 82.5664 82.5664 81.8964 82.9933 81.0744L80.3311 79.6915ZM83.5 70.33C83.5 69.501 83.5012 68.7874 83.4526 68.2025C83.4025 67.5997 83.292 67.0004 82.9933 66.4256L80.3311 67.8085C80.3703 67.8838 80.4286 68.0368 80.463 68.4508C80.4988 68.8828 80.5 69.4506 80.5 70.33H83.5ZM77.17 67C78.0495 67 78.6172 67.0012 79.0492 67.0371C79.4632 67.0714 79.6162 67.1298 79.6915 67.1689L81.0744 64.5066C80.4996 64.208 79.9003 64.0974 79.2975 64.0474C78.7126 63.9988 77.9991 64 77.17 64V67ZM82.9933 66.4256C82.5664 65.6037 81.8964 64.9336 81.0744 64.5066L79.6915 67.1689C79.9654 67.3113 80.1888 67.5346 80.3311 67.8085L82.9933 66.4256ZM59.5 70.33C59.5 69.4506 59.5012 68.8828 59.5371 68.4508C59.5714 68.0368 59.6298 67.8838 59.6689 67.8085L57.0066 66.4256C56.708 67.0004 56.5974 67.5997 56.5474 68.2025C56.4988 68.7874 56.5 69.501 56.5 70.33H59.5ZM62.83 64C62.0009 64 61.2874 63.9988 60.7026 64.0474C60.0997 64.0974 59.5005 64.208 58.9256 64.5066L60.3085 67.1689C60.3839 67.1298 60.5369 67.0714 60.9508 67.0371C61.3828 67.0012 61.9506 67 62.83 67V64ZM59.6689 67.8085C59.8112 67.5346 60.0346 67.3113 60.3085 67.1689L58.9256 64.5066C58.1037 64.9336 57.4336 65.6037 57.0066 66.4256L59.6689 67.8085ZM68.5 58V73H71.5V58H68.5ZM71.0607 71.9394L67.3107 68.1894L65.1893 70.3106L68.9394 74.0606L71.0607 71.9394ZM71.0607 74.0606L74.8107 70.3106L72.6894 68.1894L68.9394 71.9394L71.0607 74.0606Z" fill="white"/>
</svg>
