<svg width="100" height="100" viewBox="0 0 100 100" fill="none" xmlns="http://www.w3.org/2000/svg">
<circle cx="50" cy="50" r="50" fill="#A3DA5F"/>
<path d="M48.9641 79.0176C33.4529 78.7322 21.1099 65.9264 21.3954 50.4151C21.6808 34.9039 34.4866 22.5609 49.9979 22.8464C65.5091 23.1319 77.8521 35.9376 77.5666 51.4489C77.2811 66.9602 64.4754 79.3031 48.9641 79.0176Z" fill="#A3DA5F"/>
<path d="M39.3961 79.163L34.4022 89.5443L31.1508 87.9802C31.0547 87.934 30.878 87.846 30.6208 87.7164C30.3588 87.5844 30.1157 87.4438 29.8916 87.2946C29.1279 86.8029 28.5853 86.1838 28.2638 85.4373C27.9375 84.6885 27.8106 83.8758 27.8831 82.9993C27.9532 82.1275 28.1999 81.2519 28.623 80.3724C29.0484 79.488 29.5809 78.744 30.2205 78.1403C30.8578 77.5413 31.5708 77.1356 32.3595 76.9232C33.1411 76.7133 33.9623 76.7532 34.8231 77.043C35.0796 77.125 35.3411 77.2271 35.6078 77.3495C35.8696 77.4695 36.0486 77.5527 36.1447 77.5989L39.3961 79.163ZM37.1632 79.8555L35.4546 79.0335C35.2912 78.9549 35.0942 78.8661 34.8637 78.7671C34.6332 78.668 34.4245 78.5913 34.2376 78.5369C33.6604 78.3835 33.1228 78.406 32.6249 78.6045C32.1199 78.8054 31.6645 79.1308 31.2587 79.5807C30.8529 80.0306 30.5078 80.5511 30.2234 81.1423C29.9298 81.7526 29.7374 82.3555 29.6463 82.9509C29.5529 83.551 29.5877 84.1063 29.7505 84.6167C29.9062 85.1296 30.2205 85.5589 30.6933 85.9047C30.8502 86.0216 31.0428 86.1379 31.2712 86.2537C31.4924 86.372 31.6824 86.4693 31.841 86.5456L33.5496 87.3675L37.1632 79.8555Z" fill="white"/>
<path d="M31.4745 74.7748L23.9083 83.4617L18.7625 78.9797L19.8607 77.7189L23.7456 81.1027L25.8789 78.6535L22.7178 75.9002L23.8212 74.6334L26.9823 77.3866L30.2137 73.6766L31.4745 74.7748Z" fill="white"/>
<path d="M23.0574 65.0132L12.4319 69.4639L10.633 65.1694C10.5898 65.0661 10.5411 64.9362 10.4871 64.7795C10.4281 64.625 10.3821 64.4737 10.349 64.3256C10.1952 63.6962 10.1908 63.1198 10.3359 62.5964C10.4789 62.0682 10.7453 61.6067 11.1352 61.2122C11.525 60.8176 12.0052 60.5008 12.5758 60.2618C13.1514 60.0207 13.7165 59.8996 14.2712 59.8986C14.8258 59.8975 15.3416 60.0313 15.8184 60.3C16.2931 60.5637 16.7009 60.9712 17.0416 61.5223C17.119 61.6518 17.1955 61.7932 17.2713 61.9465C17.345 62.0949 17.4025 62.2182 17.4437 62.3166L18.5966 65.0689L22.4114 63.471L23.0574 65.0132ZM17.1356 65.6809L16.0074 62.9876C15.9662 62.8893 15.916 62.7831 15.8567 62.6692C15.7953 62.5503 15.7297 62.4419 15.6597 62.344C15.4541 62.0601 15.2127 61.8634 14.9356 61.754C14.6535 61.6466 14.3646 61.6057 14.0689 61.6313C13.7731 61.6569 13.4949 61.7243 13.2342 61.8335C12.9734 61.9427 12.7327 62.0927 12.5119 62.2834C12.2862 62.4763 12.1152 62.7098 11.9988 62.9841C11.8775 63.2604 11.8458 63.5715 11.9039 63.9172C11.9197 64.0378 11.9485 64.1616 11.9902 64.2887C12.0298 64.4109 12.0702 64.5212 12.1114 64.6196L13.2395 67.3128L17.1356 65.6809Z" fill="white"/>
<path d="M20.1641 57.1554L8.70747 58.3618L8.32963 54.7736C8.31846 54.6676 8.30045 54.471 8.27559 54.1841C8.25018 53.8918 8.24207 53.6111 8.25128 53.342C8.26827 52.4339 8.50985 51.6469 8.97602 50.9811C9.44164 50.31 10.0664 49.7749 10.8502 49.376C11.6288 48.9776 12.5034 48.7273 13.474 48.6251C14.45 48.5223 15.3628 48.5844 16.2126 48.8113C17.0571 49.0388 17.7769 49.4323 18.3721 49.9917C18.9614 50.5463 19.359 51.266 19.5647 52.1506C19.6298 52.4119 19.6803 52.6882 19.7163 52.9793C19.7518 53.2652 19.7751 53.4612 19.7863 53.5672L20.1641 57.1554ZM18.4016 55.6195L18.203 53.734C18.1841 53.5536 18.1561 53.3394 18.1193 53.0912C18.0824 52.843 18.038 52.6251 17.9861 52.4375C17.8133 51.8658 17.5116 51.4203 17.0811 51.101C16.6448 50.7769 16.1286 50.5604 15.5326 50.4516C14.9366 50.3427 14.3124 50.3226 13.66 50.3913C12.9864 50.4623 12.3724 50.6154 11.818 50.8508C11.2583 51.0867 10.8041 51.408 10.4555 51.8147C10.1009 52.2167 9.9008 52.7098 9.85504 53.2938C9.83802 53.4886 9.84027 53.7136 9.86177 53.9688C9.87741 54.2192 9.89445 54.4319 9.91288 54.6069L10.1114 56.4925L18.4016 55.6195Z" fill="white"/>
<path d="M19.7466 48.0282L8.38255 46.1388L9.50174 39.4072L11.1511 39.6814L10.3061 44.7637L13.5101 45.2964L14.1977 41.1611L15.8549 41.4367L15.1674 45.5719L20.0208 46.3788L19.7466 48.0282Z" fill="white"/>
<path d="M23.6678 35.765L14.3279 29.0213L17.0535 25.2464C17.1191 25.1556 17.2046 25.0463 17.31 24.9185C17.4111 24.7876 17.5162 24.6694 17.6252 24.5639C18.082 24.1044 18.5715 23.8 19.0937 23.6508C19.619 23.4972 20.1516 23.4838 20.6916 23.6106C21.2316 23.7373 21.7524 23.9818 22.254 24.3439C22.7599 24.7092 23.158 25.1282 23.4482 25.6009C23.7384 26.0736 23.8933 26.5834 23.9128 27.1303C23.9354 27.6729 23.8005 28.2333 23.508 28.8115C23.4379 28.9451 23.3572 29.0842 23.266 29.2288C23.1778 29.3691 23.1025 29.4825 23.0401 29.569L21.2933 31.9882L24.6465 34.4094L23.6678 35.765ZM20.009 31.061L21.7184 28.6936C21.7808 28.6071 21.8452 28.5088 21.9115 28.3988C21.9809 28.2845 22.0391 28.1719 22.0862 28.0612C22.2211 27.7376 22.263 27.4291 22.2118 27.1356C22.1563 26.8389 22.0405 26.5711 21.8644 26.3321C21.6883 26.0932 21.4857 25.8909 21.2565 25.7255C21.0273 25.56 20.7738 25.4328 20.4958 25.344C20.2136 25.252 19.9251 25.2279 19.6304 25.2717C19.3313 25.3123 19.0495 25.4476 18.7848 25.6775C18.6902 25.7539 18.5995 25.843 18.5128 25.9449C18.4292 26.0424 18.3562 26.1344 18.2938 26.2209L16.5844 28.5883L20.009 31.061Z" fill="white"/>
<path d="M28.8521 29.191L21.8413 20.0499L24.7043 17.8542C24.7889 17.7893 24.9471 17.6713 25.1789 17.5003C25.4149 17.326 25.6501 17.1725 25.8844 17.0399C26.6677 16.5802 27.4651 16.3753 28.2763 16.4253C29.0918 16.472 29.8743 16.7254 30.6238 17.1857C31.3701 17.6417 32.0402 18.2569 32.6342 19.0313C33.2314 19.81 33.6551 20.621 33.9053 21.4642C34.1522 22.3032 34.1925 23.1225 34.0261 23.9222C33.8608 24.7145 33.4546 25.4293 32.8075 26.0667C32.6186 26.2586 32.4094 26.4459 32.1799 26.6287C31.9546 26.8082 31.7997 26.9304 31.715 26.9953L28.8521 29.191ZM29.2417 26.8859L30.7462 25.732C30.8901 25.6217 31.0582 25.486 31.2506 25.325C31.4431 25.164 31.6057 25.0124 31.7386 24.8701C32.1359 24.4242 32.3584 23.9343 32.406 23.4005C32.4546 22.8591 32.3697 22.3058 32.1513 21.7407C31.933 21.1755 31.6242 20.6327 31.225 20.1122C30.8127 19.5747 30.3615 19.131 29.8713 18.7811C29.3779 18.4269 28.8667 18.2073 28.3378 18.1223C27.8098 18.0299 27.2848 18.1166 26.7629 18.3825C26.5878 18.4697 26.3971 18.5891 26.1907 18.7407C25.9853 18.8847 25.8128 19.0103 25.6731 19.1175L24.1687 20.2713L29.2417 26.8859Z" fill="white"/>
<path d="M36.271 24.1285L31.8997 13.4701L38.2133 10.8807L38.8477 12.4277L34.0811 14.3826L35.3135 17.3877L39.192 15.797L39.8295 17.3514L35.951 18.942L37.8179 23.4941L36.271 24.1285Z" fill="white"/>
<path d="M48.8575 21.0033L49.691 9.51353L54.3348 9.85043C54.4465 9.85853 54.5844 9.87389 54.7486 9.89649C54.9131 9.91377 55.0689 9.94112 55.2159 9.97852C55.8469 10.1259 56.363 10.3826 56.7642 10.7486C57.1708 11.115 57.4619 11.5612 57.6376 12.0873C57.8134 12.6134 57.8788 13.1849 57.8341 13.802C57.7889 14.4244 57.6414 14.9831 57.3916 15.4784C57.1418 15.9736 56.7893 16.3731 56.3341 16.677C55.8842 16.9812 55.3365 17.1607 54.6908 17.2155C54.5403 17.226 54.3796 17.2303 54.2086 17.2286C54.0429 17.2273 53.9069 17.2228 53.8005 17.2151L50.8243 16.9992L50.5251 21.1243L48.8575 21.0033ZM50.939 15.4193L53.8513 15.6306C53.9577 15.6383 54.0751 15.6415 54.2035 15.6401C54.3373 15.6391 54.4637 15.6296 54.5826 15.6115C54.9288 15.5564 55.2134 15.43 55.4363 15.2322C55.6596 15.0292 55.8266 14.79 55.9375 14.5146C56.0484 14.2393 56.1141 13.9606 56.1345 13.6787C56.155 13.3968 56.13 13.1142 56.0597 12.8311C55.9897 12.5426 55.8587 12.2844 55.6667 12.0566C55.475 11.8234 55.2119 11.6546 54.8773 11.5501C54.7625 11.5097 54.6391 11.4794 54.5069 11.4591C54.38 11.4392 54.2633 11.4254 54.157 11.4177L51.2446 11.2064L50.939 15.4193Z" fill="white"/>
<path d="M57.1791 21.9556L61.303 11.199L64.6719 12.4906C64.7715 12.5288 64.9548 12.6019 65.2218 12.71C65.4938 12.82 65.7476 12.9401 65.9832 13.0705C66.7847 13.4977 67.3764 14.0701 67.7581 14.7876C68.1449 15.5071 68.3382 16.3066 68.3379 17.1861C68.3396 18.0607 68.1658 18.9537 67.8164 19.865C67.4651 20.7813 66.9956 21.5666 66.4077 22.2208C65.8218 22.8701 65.1445 23.333 64.3759 23.6095C63.6142 23.883 62.7926 23.9106 61.9109 23.6926C61.6485 23.632 61.3794 23.5516 61.1036 23.4516C60.8328 23.3535 60.6476 23.2853 60.548 23.2472L57.1791 21.9556ZM59.3475 21.0819L61.1179 21.7607C61.2872 21.8256 61.4908 21.8979 61.7287 21.9777C61.9665 22.0575 62.1808 22.1168 62.3716 22.1556C62.9595 22.2611 63.4934 22.1944 63.9733 21.9558C64.4601 21.714 64.8872 21.3523 65.2547 20.8706C65.6221 20.3888 65.9233 19.8417 66.1581 19.2292C66.4006 18.5968 66.5428 17.9801 66.5846 17.3793C66.6284 16.7735 66.5481 16.2229 66.3439 15.7277C66.1466 15.2293 65.7981 14.8273 65.2984 14.5215C65.1325 14.4179 64.931 14.3178 64.6939 14.2211C64.4636 14.1214 64.2663 14.0401 64.102 13.9771L62.3316 13.2984L59.3475 21.0819Z" fill="white"/>
<path d="M65.3588 25.6137L72.1707 16.3234L77.6739 20.3585L76.6852 21.7068L72.5304 18.6604L70.6098 21.2798L73.9904 23.7585L72.9971 25.1134L69.6164 22.6346L66.7072 26.6023L65.3588 25.6137Z" fill="white"/>
<path d="M74.5727 34.5866L84.7802 29.2465L86.9385 33.372C86.9904 33.4713 87.05 33.5966 87.1172 33.7481C87.1891 33.897 87.2479 34.0439 87.2935 34.1885C87.5003 34.8026 87.5538 35.3765 87.4539 35.9103C87.3564 36.4489 87.1303 36.9313 86.7755 37.3577C86.4207 37.7841 85.9693 38.1406 85.4211 38.4274C84.8682 38.7167 84.3154 38.8855 83.7629 38.9338C83.2103 38.9821 82.6851 38.8927 82.1871 38.6657C81.6916 38.4434 81.2506 38.0722 80.8641 37.5521C80.776 37.4296 80.6877 37.2953 80.5991 37.149C80.513 37.0075 80.4452 36.8894 80.3958 36.7949L79.0126 34.1509L75.3478 36.0681L74.5727 34.5866ZM80.4161 33.4166L81.7697 36.0039C81.8191 36.0985 81.8782 36.1999 81.947 36.3084C82.0183 36.4216 82.0929 36.524 82.1709 36.6156C82.4 36.881 82.6573 37.0564 82.9428 37.1418C83.2329 37.2247 83.5243 37.2408 83.8168 37.1901C84.1092 37.1395 84.3807 37.0486 84.6312 36.9176C84.8817 36.7865 85.1087 36.6166 85.3124 36.4077C85.5209 36.1963 85.6714 35.949 85.764 35.6658C85.8613 35.3802 85.8663 35.0676 85.779 34.728C85.753 34.6092 85.7138 34.4883 85.6614 34.3652C85.6115 34.2468 85.5619 34.1404 85.5124 34.0459L84.1588 31.4586L80.4161 33.4166Z" fill="white"/>
<path d="M78.1899 42.2883L89.5125 40.1653L90.1775 43.7115C90.1971 43.8163 90.2309 44.0108 90.2787 44.2948C90.3275 44.5841 90.3581 44.8632 90.3706 45.1322C90.4266 46.0388 90.249 46.8426 89.8379 47.5437C89.4277 48.2501 88.848 48.8336 88.0987 49.2942C87.3547 49.7539 86.503 50.0736 85.5437 50.2535C84.5792 50.4343 83.6643 50.4458 82.799 50.2879C81.939 50.129 81.1899 49.7947 80.5517 49.2849C79.9197 48.7794 79.4656 48.094 79.1894 47.2287C79.1036 46.9735 79.031 46.7022 78.9717 46.4149C78.9134 46.1328 78.8744 45.9393 78.8548 45.8345L78.1899 42.2883ZM80.0701 43.6776L80.4195 45.5411C80.4529 45.7193 80.498 45.9307 80.5547 46.1751C80.6113 46.4195 80.6731 46.6331 80.7399 46.8159C80.9581 47.3719 81.2946 47.7917 81.7493 48.0754C82.2103 48.3634 82.7422 48.5377 83.345 48.5983C83.9479 48.6589 84.5717 48.6288 85.2164 48.5079C85.8822 48.3831 86.4819 48.1811 87.0156 47.902C87.5545 47.6218 87.9814 47.2651 88.2962 46.8316C88.6173 46.4024 88.7772 45.8949 88.7759 45.3091C88.7772 45.1136 88.7569 44.8895 88.7149 44.6369C88.6792 44.3885 88.6452 44.1779 88.6127 44.0049L88.2633 42.1413L80.0701 43.6776Z" fill="white"/>
<path d="M79.3654 51.1491L90.8485 52.0712L90.3022 58.8733L88.6356 58.7395L89.048 53.604L85.8104 53.344L85.4748 57.5226L83.8002 57.3881L84.1358 53.2095L79.2316 52.8157L79.3654 51.1491Z" fill="white"/>
<path d="M75.7864 65.2148L85.6616 71.1469L83.264 75.1382C83.2064 75.2342 83.1304 75.3503 83.0361 75.4865C82.9464 75.6255 82.8517 75.7521 82.7519 75.8664C82.3355 76.3629 81.8734 76.7074 81.3657 76.9002C80.8552 77.0975 80.3256 77.1557 79.7768 77.075C79.2281 76.9942 78.6885 76.7945 78.1582 76.4759C77.6233 76.1546 77.1913 75.7707 76.8622 75.3242C76.5332 74.8776 76.3359 74.3827 76.2703 73.8394C76.202 73.3006 76.2892 72.7308 76.5319 72.13C76.5905 71.991 76.6592 71.8456 76.7379 71.6938C76.8139 71.5466 76.8794 71.4273 76.9343 71.3358L78.4709 68.7779L74.9254 66.6481L75.7864 65.2148ZM79.8287 69.5935L78.3251 72.0966C78.2702 72.1881 78.2143 72.2914 78.1575 72.4066C78.098 72.5264 78.0495 72.6435 78.0119 72.7578C77.9047 73.0916 77.889 73.4025 77.9648 73.6907C78.0451 73.9816 78.1831 74.2387 78.3787 74.462C78.5744 74.6853 78.7933 74.8697 79.0356 75.0152C79.2779 75.1608 79.5413 75.2661 79.8257 75.3312C80.1147 75.399 80.4042 75.3987 80.6942 75.3303C80.9888 75.2646 81.2582 75.106 81.5026 74.8546C81.5904 74.7705 81.6732 74.6741 81.751 74.5653C81.8261 74.461 81.8911 74.3632 81.946 74.2717L83.4496 71.7686L79.8287 69.5935Z" fill="white"/>
<path d="M71.1575 72.2479L78.9077 80.7712L76.2383 83.1985C76.1594 83.2702 76.0116 83.401 75.7949 83.5908C75.5743 83.7842 75.3528 83.9568 75.1304 84.1086C74.3881 84.6321 73.6107 84.9029 72.7982 84.9209C71.9816 84.9425 71.1807 84.7553 70.3953 84.3594C69.6135 83.9673 68.8943 83.4103 68.2377 82.6882C67.5775 81.9621 67.0875 81.1894 66.7678 80.37C66.4516 79.5546 66.343 78.7415 66.4419 77.9307C66.5405 77.1274 66.8856 76.3811 67.4771 75.6919C67.6492 75.4849 67.8421 75.2807 68.0555 75.0794C68.265 74.8817 68.4092 74.747 68.4881 74.6752L71.1575 72.2479ZM70.9619 74.5776L69.5591 75.8531C69.425 75.9751 69.2688 76.1244 69.0905 76.3009C68.9122 76.4774 68.7628 76.6421 68.6423 76.795C68.2836 77.2725 68.1028 77.7793 68.1 78.3153C68.0968 78.8588 68.2277 79.403 68.4925 79.9479C68.7573 80.4928 69.1104 81.008 69.5517 81.4933C70.0074 81.9945 70.4941 82.3989 71.0118 82.7067C71.5331 83.0184 72.0609 83.1945 72.5951 83.2349C73.1289 83.283 73.6448 83.1527 74.1427 82.8441C74.3099 82.7425 74.49 82.6076 74.683 82.4393C74.8756 82.2786 75.037 82.139 75.1672 82.0206L76.57 80.7451L70.9619 74.5776Z" fill="white"/>
<path d="M64.1242 77.9675L69.3508 88.2336L63.2696 91.3297L62.511 89.8397L67.1022 87.5022L65.6286 84.6078L61.8929 86.5097L61.1307 85.0125L64.8664 83.1106L62.6342 78.7261L64.1242 77.9675Z" fill="white"/>
<path d="M47.6796 80.6078L47.8233 92.1269L43.1676 92.185C43.0556 92.1864 42.9169 92.1828 42.7515 92.1742C42.5861 92.1709 42.4286 92.1569 42.2789 92.1321C41.6377 92.0388 41.1017 91.8268 40.6708 91.4961C40.2347 91.1655 39.9068 90.7456 39.6871 90.2363C39.4673 89.727 39.3536 89.163 39.3459 88.5444C39.3381 87.9205 39.4377 87.3512 39.6446 86.8366C39.8516 86.3219 40.1689 85.8939 40.5967 85.5526C41.0191 85.2113 41.5497 84.986 42.1884 84.8767C42.3374 84.8535 42.4972 84.8355 42.6678 84.8227C42.8329 84.81 42.9689 84.8029 43.0755 84.8016L46.0593 84.7644L46.0077 80.6287L47.6796 80.6078ZM46.079 86.3482L43.1593 86.3847C43.0526 86.386 42.9354 86.3928 42.8075 86.4051C42.6743 86.4174 42.5492 86.4376 42.4322 86.4657C42.0919 86.55 41.8191 86.7001 41.6138 86.916C41.4085 87.1372 41.2623 87.3897 41.1752 87.6735C41.0881 87.9573 41.0463 88.2405 41.0498 88.5232C41.0533 88.8058 41.1021 89.0852 41.1963 89.3614C41.2904 89.6429 41.4429 89.889 41.6535 90.0997C41.8642 90.3158 42.1407 90.4617 42.483 90.5374C42.6007 90.568 42.7263 90.5877 42.8598 90.5967C42.9879 90.6058 43.1053 90.6097 43.212 90.6083L46.1317 90.5719L46.079 86.3482Z" fill="white"/>
</svg>
