<svg width="77" height="77" viewBox="0 0 77 77" fill="none" xmlns="http://www.w3.org/2000/svg">
<path d="M38.5 0L44.2216 2.3753L50.3972 1.88432L55.1047 5.91144L61.1297 7.35285L64.3624 12.6376L69.6472 15.8703L71.0886 21.8953L75.1157 26.6028L74.6247 32.7784L77 38.5L74.6247 44.2216L75.1157 50.3972L71.0886 55.1047L69.6472 61.1297L64.3624 64.3624L61.1297 69.6472L55.1047 71.0886L50.3972 75.1157L44.2216 74.6247L38.5 77L32.7784 74.6247L26.6028 75.1157L21.8953 71.0886L15.8703 69.6472L12.6376 64.3624L7.35285 61.1297L5.91144 55.1047L1.88432 50.3972L2.3753 44.2216L0 38.5L2.3753 32.7784L1.88432 26.6028L5.91144 21.8953L7.35285 15.8703L12.6376 12.6376L15.8703 7.35285L21.8953 5.91144L26.6028 1.88432L32.7784 2.3753L38.5 0Z" fill="#FFC67E"/>
<path d="M38.4998 4.6748L43.5266 6.76167L48.9523 6.33032L53.0882 9.86842L58.3816 11.1348L61.2218 15.7778L65.8648 18.618L67.1312 23.9114L70.6693 28.0473L70.2379 33.473L72.3248 38.4998L70.2379 43.5266L70.6693 48.9523L67.1312 53.0882L65.8648 58.3816L61.2218 61.2218L58.3816 65.8648L53.0882 67.1312L48.9523 70.6693L43.5266 70.2379L38.4998 72.3248L33.473 70.2379L28.0473 70.6693L23.9114 67.1312L18.618 65.8648L15.7778 61.2218L11.1348 58.3816L9.86842 53.0882L6.33032 48.9523L6.76167 43.5266L4.6748 38.4998L6.76167 33.473L6.33032 28.0473L9.86842 23.9114L11.1348 18.618L15.7778 15.7778L18.618 11.1348L23.9114 9.86842L28.0473 6.33032L33.473 6.76167L38.4998 4.6748Z" fill="url(#paint0_linear_318_1709)"/>
<path d="M29 38.8L36.2 46L49 30" stroke="white" stroke-width="5" stroke-linecap="round"/>
<defs>
<linearGradient id="paint0_linear_318_1709" x1="38.4998" y1="4.6748" x2="38.4998" y2="72.3248" gradientUnits="userSpaceOnUse">
<stop stop-color="#FFC67E"/>
<stop offset="1" stop-color="#EEA245"/>
</linearGradient>
</defs>
</svg>
