<svg width="36" height="36" viewBox="0 0 36 36" fill="none" xmlns="http://www.w3.org/2000/svg">
<path d="M24 12C23.1716 12 22.5 12.6716 22.5 13.5C22.5 14.3284 23.1716 15 24 15V12ZM12 15C12.8284 15 13.5 14.3284 13.5 13.5C13.5 12.6716 12.8284 12 12 12V15ZM19.5 6C19.5 5.17158 18.8285 4.5 18 4.5C17.1716 4.5 16.5 5.17158 16.5 6H19.5ZM18 21L16.9394 22.0606C17.5251 22.6464 18.4749 22.6464 19.0607 22.0606L18 21ZM15.3107 16.1894C14.7249 15.6036 13.7751 15.6036 13.1893 16.1894C12.6036 16.7751 12.6036 17.7249 13.1893 18.3106L15.3107 16.1894ZM22.8107 18.3106C23.3964 17.7249 23.3964 16.7751 22.8107 16.1894C22.2249 15.6036 21.2751 15.6036 20.6894 16.1894L22.8107 18.3106ZM28.5 18.33V25.17H31.5V18.33H28.5ZM25.17 28.5H10.83V31.5H25.17V28.5ZM7.5 25.17V18.33H4.5V25.17H7.5ZM24 15H25.17V12H24V15ZM10.83 15H12V12H10.83V15ZM10.83 28.5C9.95058 28.5 9.38276 28.4988 8.95083 28.4629C8.53688 28.4286 8.38386 28.3702 8.30855 28.3311L6.92562 30.9933C7.50051 31.292 8.09973 31.4025 8.70255 31.4526C9.28743 31.5012 10.0009 31.5 10.83 31.5V28.5ZM4.5 25.17C4.5 25.9991 4.4988 26.7126 4.54737 27.2974C4.59743 27.9003 4.70801 28.4995 5.00664 29.0744L7.66889 27.6915C7.62975 27.6162 7.57145 27.4632 7.53708 27.0492C7.5012 26.6172 7.5 26.0495 7.5 25.17H4.5ZM8.30855 28.3311C8.03457 28.1887 7.81119 27.9654 7.66889 27.6915L5.00664 29.0744C5.43359 29.8964 6.10373 30.5664 6.92562 30.9933L8.30855 28.3311ZM28.5 25.17C28.5 26.0495 28.4988 26.6172 28.463 27.0492C28.4286 27.4632 28.3703 27.6162 28.3311 27.6915L30.9933 29.0744C31.292 28.4995 31.4025 27.9003 31.4526 27.2974C31.5012 26.7126 31.5 25.9991 31.5 25.17H28.5ZM25.17 31.5C25.9991 31.5 26.7126 31.5012 27.2975 31.4526C27.9003 31.4025 28.4996 31.292 29.0744 30.9933L27.6915 28.3311C27.6162 28.3702 27.4632 28.4286 27.0492 28.4629C26.6172 28.4988 26.0495 28.5 25.17 28.5V31.5ZM28.3311 27.6915C28.1888 27.9654 27.9654 28.1887 27.6915 28.3311L29.0744 30.9933C29.8964 30.5664 30.5664 29.8964 30.9933 29.0744L28.3311 27.6915ZM31.5 18.33C31.5 17.501 31.5012 16.7874 31.4526 16.2025C31.4025 15.5997 31.292 15.0004 30.9933 14.4256L28.3311 15.8085C28.3703 15.8838 28.4286 16.0368 28.463 16.4508C28.4988 16.8828 28.5 17.4506 28.5 18.33H31.5ZM25.17 15C26.0495 15 26.6172 15.0012 27.0492 15.0371C27.4632 15.0714 27.6162 15.1298 27.6915 15.1689L29.0744 12.5066C28.4996 12.208 27.9003 12.0974 27.2975 12.0474C26.7126 11.9988 25.9991 12 25.17 12V15ZM30.9933 14.4256C30.5664 13.6037 29.8964 12.9336 29.0744 12.5066L27.6915 15.1689C27.9654 15.3113 28.1888 15.5346 28.3311 15.8085L30.9933 14.4256ZM7.5 18.33C7.5 17.4506 7.5012 16.8828 7.53708 16.4508C7.57145 16.0368 7.62975 15.8838 7.66889 15.8085L5.00664 14.4256C4.70801 15.0004 4.59743 15.5997 4.54737 16.2025C4.4988 16.7874 4.5 17.501 4.5 18.33H7.5ZM10.83 12C10.0009 12 9.28743 11.9988 8.70255 12.0474C8.09973 12.0974 7.50051 12.208 6.92562 12.5066L8.30855 15.1689C8.38386 15.1298 8.53688 15.0714 8.95083 15.0371C9.38276 15.0012 9.95058 15 10.83 15V12ZM7.66889 15.8085C7.81119 15.5346 8.03457 15.3113 8.30855 15.1689L6.92562 12.5066C6.10373 12.9336 5.43359 13.6037 5.00664 14.4256L7.66889 15.8085ZM16.5 6V21H19.5V6H16.5ZM19.0607 19.9394L15.3107 16.1894L13.1893 18.3106L16.9394 22.0606L19.0607 19.9394ZM19.0607 22.0606L22.8107 18.3106L20.6894 16.1894L16.9394 19.9394L19.0607 22.0606Z" fill="white"/>
</svg>
