<svg width="36" height="36" viewBox="0 0 36 36" fill="none" xmlns="http://www.w3.org/2000/svg">
<path fill-rule="evenodd" clip-rule="evenodd" d="M18.0021 7.875C13.8407 7.875 10.1974 10.3668 7.69397 12.6725C6.42213 13.8438 5.39634 15.0117 4.68858 15.8859C4.33401 16.3237 4.05747 16.6902 3.86799 16.9495C3.77321 17.0793 3.70008 17.1823 3.64976 17.2543C3.62459 17.2903 3.6051 17.3185 3.59145 17.3385L3.57536 17.3621L3.57062 17.3691L3.16016 18.0198L3.56909 18.6286L3.57062 18.6309L3.57536 18.6379L3.59145 18.6615C3.6051 18.6814 3.62459 18.7096 3.64976 18.7456C3.70008 18.8176 3.77321 18.9207 3.86799 19.0504C4.05747 19.3098 4.33401 19.6762 4.68858 20.1141C5.39634 20.9883 6.42213 22.1562 7.69397 23.3275C10.1974 25.6332 13.8407 28.125 18.0021 28.125C22.1634 28.125 25.8066 25.6332 28.3101 23.3275C29.582 22.1562 30.6078 20.9883 31.3155 20.1141C31.6701 19.6762 31.9466 19.3098 32.1362 19.0504C32.2308 18.9207 32.304 18.8176 32.3542 18.7456C32.3794 18.7096 32.3989 18.6814 32.4126 18.6615L32.4286 18.6379L32.4335 18.6309L32.4356 18.6279L32.8572 18L32.4349 17.3713L32.4335 17.3691L32.4286 17.3621L32.4126 17.3385C32.3989 17.3185 32.3794 17.2903 32.3542 17.2543C32.304 17.1823 32.2308 17.0793 32.1362 16.9495C31.9466 16.6902 31.6701 16.3237 31.3155 15.8859C30.6078 15.0117 29.582 13.8438 28.3101 12.6725C25.8066 10.3668 22.1634 7.875 18.0021 7.875ZM6.43728 18.6984C6.22221 18.4327 6.03912 18.1966 5.89058 18C6.03912 17.8033 6.22221 17.5672 6.43728 17.3016C7.09581 16.4883 8.04704 15.4062 9.21824 14.3275C11.6008 12.1332 14.7075 10.125 18.0021 10.125C21.2966 10.125 24.4034 12.1332 26.7858 14.3275C27.957 15.4062 28.9083 16.4883 29.5668 17.3016C29.7819 17.5672 29.9649 17.8033 30.1136 18C29.9649 18.1966 29.7819 18.4327 29.5668 18.6984C28.9083 19.5117 27.957 20.5938 26.7858 21.6724C24.4034 23.8668 21.2966 25.875 18.0021 25.875C14.7075 25.875 11.6008 23.8668 9.21824 21.6724C8.04704 20.5938 7.09581 19.5117 6.43728 18.6984ZM21.377 18C21.377 19.8639 19.866 21.375 18.002 21.375C16.1381 21.375 14.627 19.8639 14.627 18C14.627 16.1361 16.1381 14.625 18.002 14.625C19.866 14.625 21.377 16.1361 21.377 18ZM23.627 18C23.627 21.1066 21.1086 23.625 18.002 23.625C14.8954 23.625 12.377 21.1066 12.377 18C12.377 14.8934 14.8954 12.375 18.002 12.375C21.1086 12.375 23.627 14.8934 23.627 18Z" fill="#EEA245"/>
</svg>
