<svg width="60.000000" height="85.000000" viewBox="0 0 60 85" fill="none" xmlns="http://www.w3.org/2000/svg" xmlns:xlink="http://www.w3.org/1999/xlink">
	<desc>
			Created with Pixso.
	</desc>
	<defs>
		<clipPath id="clip320_1834">
			<rect id="heart-svgrepo-com 1" width="25.000000" height="25.000000" transform="translate(18.000000 30.000000)" fill="white" fill-opacity="0"/>
		</clipPath>
	</defs>
	<path id="Vector 3" d="M0 0L0 85L30 62L60 85L60 0L0 0Z" fill="#EEA245" fill-opacity="1.000000" fill-rule="evenodd"/>
	<rect id="heart-svgrepo-com 1" width="25.000000" height="25.000000" transform="translate(18.000000 30.000000)" fill="#FFFFFF" fill-opacity="0"/>
	<g clip-path="url(#clip320_1834)">
		<path id="Vector" d="M30.5 35.7295L29.9375 36.2715C30.0859 36.4248 30.2891 36.5107 30.5 36.5107C30.7129 36.5107 30.916 36.4248 31.0645 36.2715L30.5 35.7295ZM25.293 47.1045C24.959 46.8311 24.4668 46.8789 24.1934 47.2119C23.9199 47.5449 23.9668 48.0371 24.3008 48.3115L25.293 47.1045ZM20.4395 43.9697C20.6465 44.3486 21.1211 44.4873 21.5 44.2803C21.8789 44.0732 22.0176 43.5986 21.8105 43.2207L20.4395 43.9697ZM20.8652 39.5176C20.8652 37.2773 22.1309 35.3984 23.8594 34.6084C25.5391 33.8408 27.7949 34.0439 29.9375 36.2715L31.0645 35.1875C28.5195 32.5449 25.5684 32.1094 23.209 33.1875C20.9023 34.2422 19.3027 36.6924 19.3027 39.5176L20.8652 39.5176ZM26.8516 50.3125C27.3848 50.7324 27.959 51.1816 28.5391 51.5205C29.1191 51.8594 29.7812 52.1348 30.5 52.1348L30.5 50.5723C30.1777 50.5723 29.7988 50.4473 29.3281 50.1719C28.8555 49.8965 28.3672 49.5166 27.8203 49.085L26.8516 50.3125ZM34.1484 50.3125C35.6348 49.1406 37.5352 47.7979 39.0254 46.1201C40.541 44.4121 41.6992 42.2939 41.6992 39.5176L40.1367 39.5176C40.1367 41.8066 39.1992 43.5713 37.8574 45.083C36.4863 46.625 34.7598 47.8408 33.1816 49.085L34.1484 50.3125ZM41.6992 39.5176C41.6992 36.6924 40.0996 34.2422 37.791 33.1875C35.4336 32.1094 32.4805 32.5449 29.9375 35.1875L31.0645 36.2715C33.207 34.0439 35.4629 33.8408 37.1426 34.6084C38.8691 35.3984 40.1367 37.2773 40.1367 39.5176L41.6992 39.5176ZM33.1816 49.085C32.6348 49.5166 32.1445 49.8965 31.6738 50.1719C31.2031 50.4473 30.8223 50.5723 30.5 50.5723L30.5 52.1348C31.2207 52.1348 31.8828 51.8594 32.4629 51.5205C33.043 51.1816 33.6152 50.7324 34.1484 50.3125L33.1816 49.085ZM27.8203 49.085C26.9902 48.4316 26.1484 47.8086 25.293 47.1045L24.3008 48.3115C25.1641 49.0234 26.0781 49.7021 26.8516 50.3125L27.8203 49.085ZM21.8105 43.2207C21.2266 42.1514 20.8652 40.9404 20.8652 39.5176L19.3027 39.5176C19.3027 41.2236 19.7402 42.6904 20.4395 43.9697L21.8105 43.2207Z" fill="#FFFFFF" fill-opacity="1.000000" fill-rule="nonzero"/>
	</g>
</svg>
