<svg width="32" height="32" viewBox="0 0 32 32" fill="none" xmlns="http://www.w3.org/2000/svg">
<path fill-rule="evenodd" clip-rule="evenodd" d="M4 9.33333C4 8.59696 4.59696 8 5.33333 8H26.6667C27.4031 8 28 8.59696 28 9.33333C28 10.0697 27.4031 10.6667 26.6667 10.6667H5.33333C4.59696 10.6667 4 10.0697 4 9.33333ZM8 16C8 15.2636 8.59696 14.6667 9.33333 14.6667H22.6667C23.4031 14.6667 24 15.2636 24 16C24 16.7364 23.4031 17.3333 22.6667 17.3333H9.33333C8.59696 17.3333 8 16.7364 8 16ZM12 22.6667C12 21.9303 12.597 21.3333 13.3333 21.3333H18.6667C19.4031 21.3333 20 21.9303 20 22.6667C20 23.4031 19.4031 24 18.6667 24H13.3333C12.597 24 12 23.4031 12 22.6667Z" fill="white"/>
</svg>
