<svg width="26" height="26" viewBox="0 0 26 26" fill="none" xmlns="http://www.w3.org/2000/svg">
<path d="M7.47436 15.4382L5.34375 16.5031C5.21875 16.5657 5.13021 16.6334 5.07814 16.7064C5.02604 16.7795 5 16.8785 5 17.0037C5 17.1288 5.02604 17.2279 5.07814 17.3009C5.13021 17.3739 5.21875 17.4417 5.34375 17.5043L11.9792 20.8207C12.25 20.9528 12.5903 21.0119 13 20.998C13.4097 21.0119 13.75 20.9528 14.0208 20.8207L20.6563 17.5043C20.7813 17.4417 20.8698 17.3739 20.9219 17.3009C20.974 17.2279 21 17.1288 21 17.0037C21 16.8785 20.974 16.7795 20.9219 16.7064C20.8698 16.6334 20.7813 16.5657 20.6563 16.5031L18.5256 15.4382L17.2466 16.0775L19.0996 17.0037L13.5171 19.7938C13.4614 19.8202 13.3209 19.8643 13.0387 19.8547L13 19.8534L12.9613 19.8547C12.6791 19.8643 12.5386 19.8202 12.4829 19.7938L6.90036 17.0037L8.75343 16.0775L7.47436 15.4382ZM5.84921 17.5292C5.84921 17.5292 5.84946 17.5291 5.84993 17.5288L5.84939 17.5291L5.84921 17.5292ZM5.34375 12.5142L7.48918 11.4419L8.76825 12.0812L6.90036 13.0148L12.4829 15.805C12.5386 15.8313 12.6791 15.8754 12.9613 15.8658L13 15.8645L13.0387 15.8658C13.3209 15.8754 13.4614 15.8313 13.5171 15.805L19.0996 13.0148L17.2318 12.0812L18.5109 11.4419L20.6563 12.5142C20.7813 12.5768 20.8698 12.6445 20.9219 12.7176C20.974 12.7906 21 12.8896 21 13.0148C21 13.1399 20.974 13.239 20.9219 13.312C20.8698 13.385 20.7813 13.4528 20.6563 13.5154L14.0208 16.8318C13.75 16.9639 13.4097 17.023 13 17.0091C12.5903 17.023 12.25 16.9639 11.9792 16.8318L5.34375 13.5154C5.21875 13.4528 5.13021 13.385 5.07811 13.312C5.02604 13.239 5 13.1399 5 13.0148C5 12.8896 5.02604 12.7906 5.07811 12.7176C5.13021 12.6445 5.21875 12.5768 5.34375 12.5142ZM11.9792 5.17926L5.34375 8.49568C5.21875 8.55827 5.13021 8.62605 5.07811 8.69904C5.02604 8.77208 5 8.87113 5 8.99628C5 9.12144 5.02604 9.22049 5.07811 9.29352C5.13021 9.36652 5.21875 9.4343 5.34375 9.49689L11.9792 12.8133C12.25 12.9454 12.5903 13.0045 13 12.9906C13.4097 13.0045 13.75 12.9454 14.0208 12.8133L20.6563 9.49689C20.7813 9.4343 20.8698 9.36652 20.9219 9.29352C20.974 9.22049 21 9.12144 21 8.99628C21 8.87113 20.974 8.77208 20.9219 8.69904C20.8698 8.62605 20.7813 8.55827 20.6563 8.49568L14.0208 5.17926C13.75 5.04717 13.4097 4.98808 13 5.00199C12.5903 4.98808 12.25 5.04717 11.9792 5.17926ZM5.84925 12.4893L5.84929 12.4893L5.84993 12.4897C5.84946 12.4894 5.84925 12.4893 5.84925 12.4893ZM13 6.14654L13.0387 6.14522C13.3208 6.13564 13.4614 6.17975 13.5171 6.20613L19.0996 8.99628L13.5171 11.7864C13.4614 11.8128 13.3209 11.8569 13.0387 11.8473L13 11.846L12.9613 11.8473C12.6791 11.8569 12.5386 11.8128 12.4829 11.7864L6.90036 8.99628L12.4829 6.20613C12.5386 6.17975 12.6792 6.13564 12.9613 6.14522L13 6.14654Z" fill="#16182A"/>
</svg>
