<svg width="20" height="18" viewBox="0 0 20 18" fill="none" xmlns="http://www.w3.org/2000/svg">
<path d="M5 17H2.6C2.03995 17 1.75992 17 1.54601 16.891C1.35785 16.7951 1.20487 16.6422 1.10899 16.454C1 16.2401 1 15.9601 1 15.4V6.0398C1 5.66343 1 5.47524 1.05919 5.31095C1.1115 5.16573 1.19673 5.03458 1.30819 4.9278C1.43428 4.80699 1.60625 4.73056 1.95018 4.5777L10 1L18.0498 4.5777C18.3938 4.73056 18.5657 4.80699 18.6918 4.9278C18.8033 5.03458 18.8885 5.16573 18.9408 5.31095C19 5.47524 19 5.66343 19 6.0398V15.4C19 15.9601 19 16.2401 18.891 16.454C18.7951 16.6422 18.6422 16.7951 18.454 16.891C18.2401 17 17.9601 17 17.4 17H15M5 17H15M5 17V11M15 17V11M5 11V7H15V11M5 11H15" stroke="#16182A" stroke-width="1.2" stroke-linecap="round" stroke-linejoin="round"/>
</svg>
