<svg width="28" height="24" viewBox="0 0 28 24" fill="none" xmlns="http://www.w3.org/2000/svg">
<path d="M14 3.87592L13.3245 4.52605C13.5012 4.70967 13.7451 4.81342 14 4.81342C14.2549 4.81342 14.4987 4.70967 14.6755 4.52605L14 3.87592ZM7.75076 17.5263C7.35097 17.1973 6.76016 17.2546 6.43114 17.6544C6.10211 18.0541 6.15947 18.645 6.55926 18.974L7.75076 17.5263ZM1.92749 13.7645C2.17592 14.2188 2.74559 14.3856 3.19985 14.1371C3.65412 13.8886 3.82096 13.319 3.57251 12.8648L1.92749 13.7645ZM2.4375 8.42151C2.4375 5.73292 3.95671 3.47828 6.03045 2.53037C8.04509 1.60948 10.7521 1.85336 13.3245 4.52605L14.6755 3.2258C11.6231 0.0545331 8.08011 -0.46813 5.25095 0.825083C2.48089 2.09128 0.5625 5.03142 0.5625 8.42151H2.4375ZM9.62177 21.375C10.2621 21.8798 10.9494 22.418 11.646 22.825C12.3424 23.2319 13.137 23.5626 14 23.5626V21.6876C13.613 21.6876 13.1576 21.5368 12.592 21.2061C12.0266 20.8758 11.4401 20.4209 10.7826 19.9025L9.62177 21.375ZM18.3782 21.375C20.1615 19.9691 22.441 18.3584 24.2291 16.3449C26.0494 14.2953 27.4375 11.7534 27.4375 8.42151H25.5625C25.5625 11.1683 24.4385 13.2854 22.8271 15.0999C21.1836 16.9505 19.112 18.409 17.2175 19.9025L18.3782 21.375ZM27.4375 8.42151C27.4375 5.03142 25.5191 2.09128 22.749 0.825083C19.9199 -0.46813 16.3769 0.0545331 13.3245 3.2258L14.6755 4.52605C17.2479 1.85336 19.9549 1.60948 21.9695 2.53037C24.0432 3.47828 25.5625 5.73292 25.5625 8.42151H27.4375ZM17.2175 19.9025C16.5599 20.4209 15.9734 20.8758 15.408 21.2061C14.8424 21.5368 14.387 21.6876 14 21.6876V23.5626C14.863 23.5626 15.6576 23.2319 16.354 22.825C17.0506 22.418 17.7379 21.8798 18.3782 21.375L17.2175 19.9025ZM10.7826 19.9025C9.78767 19.1183 8.77661 18.3705 7.75076 17.5263L6.55926 18.974C7.5971 19.8281 8.6934 20.6431 9.62177 21.375L10.7826 19.9025ZM3.57251 12.8648C2.871 11.5821 2.4375 10.1293 2.4375 8.42151H0.5625C0.5625 10.4684 1.08744 12.2285 1.92749 13.7645L3.57251 12.8648Z" fill="white"/>
</svg>
