<svg width="15" height="15" viewBox="0 0 15 15" fill="none" xmlns="http://www.w3.org/2000/svg">
<path d="M6.76464 0C10.4947 0 13.5293 3.03463 13.5293 6.76465C13.5293 8.08652 13.1479 9.3208 12.4897 10.3639L14.5597 12.4338C15.1468 13.0209 15.1468 13.9727 14.5597 14.5597C13.9726 15.1468 13.0208 15.1468 12.4338 14.5597L10.3639 12.4898C9.32074 13.1479 8.08646 13.5293 6.76464 13.5293C3.03462 13.5293 -7.62939e-06 10.4947 -7.62939e-06 6.76465C-7.62939e-06 3.03463 3.03456 0 6.76464 0ZM6.76464 12.026C9.66576 12.026 12.026 9.66577 12.026 6.76465C12.026 3.86353 9.66579 1.50325 6.76464 1.50325C3.86349 1.50325 1.50325 3.86353 1.50325 6.76465C1.50325 9.66577 3.86346 12.026 6.76464 12.026Z" fill="#E1E1E1"/>
</svg>
