<svg width="30" height="30" viewBox="0 0 30 30" fill="none" xmlns="http://www.w3.org/2000/svg">
<path d="M15 6.87592L14.3245 7.52605C14.5012 7.70967 14.7451 7.81342 15 7.81342C15.2549 7.81342 15.4987 7.70967 15.6755 7.52605L15 6.87592ZM8.75076 20.5263C8.35097 20.1973 7.76016 20.2546 7.43114 20.6544C7.10211 21.0541 7.15947 21.645 7.55926 21.974L8.75076 20.5263ZM2.92749 16.7645C3.17592 17.2188 3.74559 17.3856 4.19985 17.1371C4.65412 16.8886 4.82096 16.319 4.57251 15.8648L2.92749 16.7645ZM3.4375 11.4215C3.4375 8.73292 4.95671 6.47828 7.03045 5.53037C9.04509 4.60948 11.7521 4.85336 14.3245 7.52605L15.6755 6.2258C12.6231 3.05453 9.08011 2.53187 6.25095 3.82508C3.48089 5.09128 1.5625 8.03142 1.5625 11.4215H3.4375ZM10.6218 24.375C11.2621 24.8798 11.9494 25.418 12.646 25.825C13.3424 26.2319 14.137 26.5626 15 26.5626V24.6876C14.613 24.6876 14.1576 24.5368 13.592 24.2061C13.0266 23.8758 12.4401 23.4209 11.7826 22.9025L10.6218 24.375ZM19.3782 24.375C21.1615 22.9691 23.441 21.3584 25.2291 19.3449C27.0494 17.2953 28.4375 14.7534 28.4375 11.4215H26.5625C26.5625 14.1683 25.4385 16.2854 23.8271 18.0999C22.1836 19.9505 20.112 21.409 18.2175 22.9025L19.3782 24.375ZM28.4375 11.4215C28.4375 8.03142 26.5191 5.09128 23.749 3.82508C20.9199 2.53187 17.3769 3.05453 14.3245 6.2258L15.6755 7.52605C18.2479 4.85336 20.9549 4.60948 22.9695 5.53037C25.0432 6.47828 26.5625 8.73292 26.5625 11.4215H28.4375ZM18.2175 22.9025C17.5599 23.4209 16.9734 23.8758 16.408 24.2061C15.8424 24.5368 15.387 24.6876 15 24.6876V26.5626C15.863 26.5626 16.6576 26.2319 17.354 25.825C18.0506 25.418 18.7379 24.8798 19.3782 24.375L18.2175 22.9025ZM11.7826 22.9025C10.7877 22.1183 9.77661 21.3705 8.75076 20.5263L7.55926 21.974C8.5971 22.8281 9.6934 23.6431 10.6218 24.375L11.7826 22.9025ZM4.57251 15.8648C3.871 14.5821 3.4375 13.1293 3.4375 11.4215H1.5625C1.5625 13.4684 2.08744 15.2285 2.92749 16.7645L4.57251 15.8648Z" fill="#EEA245"/>
</svg>
