<svg width="23" height="23" viewBox="0 0 23 23" fill="none" xmlns="http://www.w3.org/2000/svg">
<path d="M2.12964 8.0926C2.12964 8.32784 2.32034 8.51853 2.55557 8.51853C2.79081 8.51853 2.98151 8.32784 2.98151 8.0926V5.74998C2.98151 4.22097 4.22101 2.98147 5.75002 2.98147H8.09262C8.32784 2.98147 8.51853 2.79078 8.51853 2.55556C8.51853 2.32033 8.32784 2.12964 8.09262 2.12964H5.32409C3.55984 2.12964 2.12964 3.55984 2.12964 5.32409V8.0926ZM2.98147 14.9074C2.98147 14.6722 2.79078 14.4815 2.55556 14.4815C2.32033 14.4815 2.12964 14.6722 2.12964 14.9074V17.6759C2.12964 19.4402 3.55984 20.8704 5.32409 20.8704H8.09262C8.32784 20.8704 8.51853 20.6797 8.51853 20.4444C8.51853 20.2092 8.32784 20.0185 8.09262 20.0185H5.75C4.22098 20.0185 2.98147 18.779 2.98147 17.25V14.9074ZM20.0185 8.09262C20.0185 8.32784 20.2092 8.51853 20.4444 8.51853C20.6797 8.51853 20.8704 8.32784 20.8704 8.09262V5.32409C20.8704 3.55984 19.4402 2.12964 17.6759 2.12964H14.9074C14.6722 2.12964 14.4815 2.32034 14.4815 2.55557C14.4815 2.79081 14.6722 2.98151 14.9074 2.98151H17.25C18.779 2.98151 20.0185 4.22101 20.0185 5.75002V8.09262ZM5.11111 11.5C5.11111 11.2648 4.92041 11.0741 4.68518 11.0741H0.425933C0.190696 11.0741 0 11.2648 0 11.5C0 11.7353 0.190697 11.926 0.425933 11.926H4.68518C4.92041 11.926 5.11111 11.7353 5.11111 11.5ZM11.0741 22.5741C11.0741 22.8093 11.2648 23 11.5 23C11.7353 23 11.926 22.8093 11.926 22.5741V18.3148C11.926 18.0796 11.7353 17.8889 11.5 17.8889C11.2648 17.8889 11.0741 18.0796 11.0741 18.3148V22.5741ZM20.0185 17.25C20.0185 18.779 18.779 20.0185 17.25 20.0185H14.9074C14.6722 20.0185 14.4815 20.2092 14.4815 20.4444C14.4815 20.6797 14.6722 20.8704 14.9074 20.8704H17.6759C19.4402 20.8704 20.8704 19.4402 20.8704 17.6759V14.9074C20.8704 14.6722 20.6797 14.4815 20.4444 14.4815C20.2092 14.4815 20.0185 14.6722 20.0185 14.9074V17.25ZM11.0741 4.68518C11.0741 4.92041 11.2648 5.11111 11.5 5.11111C11.7353 5.11111 11.926 4.92041 11.926 4.68518V0.425933C11.926 0.190696 11.7353 0 11.5 0C11.2648 0 11.0741 0.190697 11.0741 0.425933V4.68518ZM18.3148 11.0741C18.0796 11.0741 17.8889 11.2648 17.8889 11.5C17.8889 11.7353 18.0796 11.926 18.3148 11.926H22.5741C22.8093 11.926 23 11.7353 23 11.5C23 11.2648 22.8093 11.0741 22.5741 11.0741H18.3148Z" fill="black"/>
</svg>
