<svg width="29" height="29" viewBox="0 0 29 29" fill="none" xmlns="http://www.w3.org/2000/svg">
<path d="M8.22948 12.7237L11.8545 11.7812C12.2532 11.6724 12.507 11.2737 12.3982 10.8387C12.2895 10.4399 11.8907 10.1862 11.4557 10.2949L9.57073 10.8024C10.187 10.0049 10.9845 9.35243 11.9632 8.91743C13.4495 8.26493 15.0807 8.22868 16.6032 8.80868C18.0895 9.38868 19.2857 10.5487 19.9382 11.9987C20.1195 12.3974 20.5545 12.5424 20.9532 12.3974C21.352 12.2162 21.497 11.7812 21.352 11.3824C20.5545 9.53368 19.0682 8.11993 17.1832 7.35868C15.2982 6.63368 13.232 6.66993 11.3832 7.46743C10.1507 8.01118 9.13573 8.84493 8.33823 9.89618L7.86698 8.11993C7.75823 7.72118 7.35948 7.46743 6.92448 7.57618C6.52573 7.68493 6.27198 8.08368 6.38073 8.51868L7.32323 12.1437C7.43198 12.6512 7.68573 12.8687 8.22948 12.7237ZM22.4032 20.4087L21.4607 16.8199C21.4607 16.8199 21.3157 16.0949 20.5907 16.2762L16.9657 17.2187C16.567 17.3274 16.3132 17.7262 16.422 18.1612C16.5307 18.5599 16.9295 18.8137 17.3645 18.7049L19.2495 18.1974C17.6545 20.2999 14.827 21.1699 12.2532 20.1549C10.767 19.5749 9.57073 18.4149 8.91823 16.9649C8.73698 16.5662 8.30198 16.4212 7.90323 16.5662C7.50448 16.7474 7.35948 17.1824 7.50448 17.5812C8.30198 19.4299 9.78823 20.8437 11.6732 21.6049C12.5795 21.9674 13.4857 22.1124 14.4282 22.1124C16.8207 22.1124 19.0682 20.9887 20.5182 19.0312L20.9895 20.8074C21.062 21.1337 21.3882 21.3874 21.7145 21.3874C21.787 21.3874 21.8595 21.3874 21.8957 21.3512C22.2582 21.2062 22.512 20.8074 22.4032 20.4087Z" fill="white"/>
</svg>
