<svg width="23" height="23" viewBox="0 0 23 23" fill="none" xmlns="http://www.w3.org/2000/svg">
<g clip-path="url(#clip0_320_1946)">
<path d="M16.5425 9.19141C16.3734 9.19141 16.2171 9.28118 16.1319 9.42718L13.1215 14.5835C13.0357 14.7306 13.035 14.9123 13.1198 15.06C13.2046 15.2077 13.3618 15.2988 13.5321 15.2988H19.5529C19.7232 15.2988 19.8805 15.2077 19.9653 15.06C20.0501 14.9123 20.0494 14.7306 19.9635 14.5835L16.9532 9.42718C16.8679 9.28118 16.7116 9.19141 16.5425 9.19141ZM14.3603 14.3478L16.5425 10.6099L18.7247 14.3478H14.3603Z" fill="#16182A"/>
<path d="M22.5245 16.1471H11.3905L16.5434 7.32094L20.5328 14.1542C20.6652 14.381 20.9565 14.4575 21.1831 14.3251C21.4099 14.1927 21.4864 13.9015 21.354 13.6748L16.954 6.13812C16.9527 6.13584 16.951 6.13387 16.9497 6.13159C16.9417 6.1184 16.9331 6.10572 16.9239 6.09336C16.9211 6.08962 16.9184 6.08588 16.9156 6.0822C16.904 6.06762 16.8917 6.05361 16.8785 6.04049C16.877 6.03897 16.8753 6.03764 16.8737 6.03611C16.8619 6.0247 16.8494 6.01399 16.8365 6.00384C16.8324 6.00061 16.8281 5.9975 16.8239 5.99446C16.812 5.98578 16.7999 5.97772 16.7872 5.97012C16.7838 5.96802 16.7804 5.96581 16.7768 5.96378C16.7603 5.95446 16.7432 5.9459 16.7256 5.93861C16.7249 5.93835 16.7242 5.9381 16.7235 5.93785C16.707 5.93113 16.69 5.92542 16.6726 5.92054C16.668 5.91921 16.6634 5.91813 16.6587 5.91699C16.6446 5.9135 16.6303 5.91065 16.6158 5.90843C16.6107 5.90767 16.6058 5.90678 16.6008 5.90615C16.582 5.90387 16.5629 5.90234 16.5434 5.90234H6.45659C6.28751 5.90234 6.13117 5.99212 6.04596 6.13812L0.0648594 16.3828C-0.0209816 16.5298 -0.021679 16.7116 0.0631477 16.8593C0.147911 17.007 0.305202 17.0981 0.475489 17.0981H5.96183C5.96234 17.0981 5.96278 17.0981 5.96329 17.0981C5.9638 17.0981 5.96424 17.0981 5.96475 17.0981H8.24004C8.24055 17.0981 8.24099 17.0981 8.2415 17.0981C8.24201 17.0981 8.24245 17.0981 8.24296 17.0981H10.5624H22.5246C22.7873 17.0981 23.0001 16.8852 23.0001 16.6226C23.0001 16.36 22.7872 16.1471 22.5245 16.1471ZM10.2894 16.1471H9.06815L13.4699 8.57292C13.6018 8.34583 13.5247 8.05484 13.2977 7.9229C13.0707 7.79085 12.7795 7.868 12.6477 8.09509L7.96825 16.1471H6.78994L12.1909 6.85332H15.7152L10.2894 16.1471ZM6.72952 6.85332H8.89082L4.74148 13.9933C4.60955 14.2204 4.68664 14.5114 4.91367 14.6433C4.98886 14.687 5.07103 14.7078 5.15217 14.7078C5.316 14.7078 5.47551 14.623 5.56369 14.4711L9.99078 6.85332H11.0911L5.69004 16.1471H1.30366L6.72952 6.85332Z" fill="#16182A"/>
</g>
<defs>
<clipPath id="clip0_320_1946">
<rect width="23" height="23" fill="white"/>
</clipPath>
</defs>
</svg>
