<svg width="18" height="18" viewBox="0 0 18 18" fill="none" xmlns="http://www.w3.org/2000/svg">
<g clip-path="url(#clip0_320_1881)">
<path d="M0.472392 5.50946C0.213486 5.68115 0.142783 6.03022 0.314473 6.28913C0.486163 6.54803 0.835228 6.61873 1.09414 6.44704L0.472392 5.50946ZM16.9068 6.44704C17.1657 6.61873 17.5148 6.54803 17.6865 6.28913C17.8582 6.03022 17.7875 5.68115 17.5286 5.50946L16.9068 6.44704ZM8.7012 1.40254C8.78955 1.34395 8.89373 1.3125 9.00045 1.3125V0.1875C8.67293 0.1875 8.35253 0.283903 8.07953 0.464908L8.7012 1.40254ZM9.00045 1.3125C9.10725 1.3125 9.21143 1.34395 9.29978 1.40254L9.92145 0.464934C9.64845 0.28393 9.32798 0.1875 9.00045 0.1875V1.3125ZM1.09414 6.44704L8.7012 1.40254L8.07953 0.464908L0.472392 5.50946L1.09414 6.44704ZM9.29978 1.40254L16.9068 6.44704L17.5286 5.50946L9.92145 0.464934L9.29978 1.40254Z" fill="#16182A"/>
<path d="M6.56252 9.17342L6.00087 9.14237C6.0003 9.15272 6.00002 9.16307 6.00002 9.17342H6.56252ZM7.17977 12.1794L7.74137 12.2108C7.74197 12.2003 7.74227 12.1899 7.74227 12.1794H7.17977ZM6.12477 13.4297C5.92968 13.6714 5.96751 14.0255 6.20926 14.2206C6.45102 14.4158 6.80517 14.3779 7.00026 14.1362L6.12477 13.4297ZM7.60854 7.93502C7.80242 7.69232 7.76282 7.33835 7.52004 7.14448C7.27734 6.95061 6.92339 6.99023 6.72951 7.23297L7.60854 7.93502ZM6.00002 9.17342C6.00002 9.77454 6.18449 10.3586 6.33357 10.8425C6.49317 11.3607 6.61727 11.7786 6.61727 12.1794H7.74227C7.74227 11.579 7.55777 10.9952 7.40872 10.5114C7.24917 9.99339 7.12502 9.57504 7.12502 9.17342H6.00002ZM6.61815 12.148C6.59193 12.6163 6.41936 13.0646 6.12477 13.4297L7.00026 14.1362C7.44278 13.5878 7.70199 12.9144 7.74137 12.2108L6.61815 12.148ZM6.72951 7.23297C6.29415 7.77812 6.03936 8.44547 6.00087 9.14237L7.12416 9.20439C7.14975 8.74112 7.31913 8.29742 7.60854 7.93502L6.72951 7.23297Z" fill="#16182A"/>
<path d="M10.5 9.17329L9.93834 9.14224C9.93782 9.15259 9.93752 9.16294 9.93752 9.17329H10.5ZM11.1173 12.1793L11.6789 12.2107C11.6795 12.2003 11.6798 12.1898 11.6798 12.1793H11.1173ZM10.0622 13.4295C9.86717 13.6713 9.90504 14.0254 10.1468 14.2206C10.3885 14.4156 10.7426 14.3778 10.9378 14.136L10.0622 13.4295ZM11.5429 7.93894C11.7362 7.69571 11.6957 7.34188 11.4526 7.14857C11.2094 6.95525 10.8555 6.99568 10.6622 7.23887L11.5429 7.93894ZM9.93752 9.17329C9.93752 9.77441 10.122 10.3584 10.271 10.8424C10.4306 11.3606 10.5548 11.7785 10.5548 12.1793H11.6798C11.6798 11.5788 11.4953 10.9951 11.3462 10.5113C11.1866 9.99326 11.0625 9.57491 11.0625 9.17329H9.93752ZM10.5557 12.1479C10.5294 12.6162 10.3568 13.0645 10.0622 13.4295L10.9378 14.136C11.3803 13.5877 11.6395 12.9143 11.6789 12.2107L10.5557 12.1479ZM10.6622 7.23887C10.2298 7.78286 9.97674 8.44789 9.93834 9.14224L11.0617 9.20434C11.0872 8.74271 11.2554 8.30059 11.5429 7.93894L10.6622 7.23887Z" fill="#16182A"/>
<path d="M2.625 17.25H2.0625C2.0625 17.5606 2.31434 17.8125 2.625 17.8125V17.25ZM15.375 17.25V17.8125C15.6856 17.8125 15.9375 17.5606 15.9375 17.25H15.375ZM15.9375 4.875C15.9375 4.56434 15.6856 4.3125 15.375 4.3125C15.0643 4.3125 14.8125 4.56434 14.8125 4.875H15.9375ZM2.0625 4.875V17.25H3.1875V4.875H2.0625ZM2.625 17.8125H15.375V16.6875H2.625V17.8125ZM15.9375 17.25V4.875H14.8125V17.25H15.9375Z" fill="#16182A"/>
</g>
<defs>
<clipPath id="clip0_320_1881">
<rect width="18" height="18" fill="white"/>
</clipPath>
</defs>
</svg>
