<svg width="38" height="38" viewBox="0 0 38 38" fill="none" xmlns="http://www.w3.org/2000/svg">
<path d="M18.9987 10.2605C19.6283 10.2605 20.1388 9.75007 20.1388 9.12047C20.1388 8.49087 19.6283 7.98047 18.9987 7.98047V10.2605ZM30.7787 19.7605C30.7787 19.1309 30.2683 18.6205 29.6388 18.6205C29.0092 18.6205 28.4987 19.1309 28.4987 19.7605H30.7787ZM29.6388 10.2605C30.2683 10.2605 30.7787 9.75007 30.7787 9.12047C30.7787 8.49087 30.2683 7.98047 29.6388 7.98047V10.2605ZM23.425 7.98047C22.7954 7.98047 22.285 8.49087 22.285 9.12047C22.285 9.75007 22.7954 10.2605 23.425 10.2605V7.98047ZM30.7787 9.12047C30.7787 8.49087 30.2683 7.98047 29.6388 7.98047C29.0092 7.98047 28.4987 8.49087 28.4987 9.12047H30.7787ZM28.4987 15.4148C28.4987 16.0444 29.0092 16.5548 29.6388 16.5548C30.2683 16.5548 30.7787 16.0444 30.7787 15.4148H28.4987ZM30.4448 9.92657C30.89 9.48138 30.89 8.75956 30.4448 8.31437C29.9996 7.86917 29.2779 7.86917 28.8327 8.31437L30.4448 9.92657ZM18.1927 18.9544C17.7475 19.3996 17.7475 20.1213 18.1927 20.5665C18.6379 21.0117 19.3596 21.0117 19.8048 20.5665L18.1927 18.9544ZM18.9987 7.98047H14.4387V10.2605H18.9987V7.98047ZM14.4387 7.98047C10.4513 7.98047 7.21875 11.213 7.21875 15.2005H9.49875C9.49875 12.4722 11.7105 10.2605 14.4387 10.2605V7.98047ZM7.21875 15.2005V24.3205H9.49875V15.2005H7.21875ZM7.21875 24.3205C7.21875 28.308 10.4513 31.5405 14.4387 31.5405V29.2605C11.7105 29.2605 9.49875 27.0487 9.49875 24.3205H7.21875ZM14.4387 31.5405H23.5588V29.2605H14.4387V31.5405ZM23.5588 31.5405C27.5463 31.5405 30.7787 28.308 30.7787 24.3205H28.4987C28.4987 27.0487 26.287 29.2605 23.5588 29.2605V31.5405ZM30.7787 24.3205V19.7605H28.4987V24.3205H30.7787ZM29.6388 7.98047H23.425V10.2605H29.6388V7.98047ZM28.4987 9.12047V15.4148H30.7787V9.12047H28.4987ZM28.8327 8.31437L18.1927 18.9544L19.8048 20.5665L30.4448 9.92657L28.8327 8.31437Z" fill="#EEA245"/>
</svg>
