<svg width="26" height="27" viewBox="0 0 26 27" fill="none" xmlns="http://www.w3.org/2000/svg">
<path d="M22.127 4.04911C22.127 4.04911 24.2026 3.20979 24.0296 5.24814C23.972 6.08747 23.4531 9.02508 23.0495 12.2025L21.6657 21.6149C21.6657 21.6149 21.5505 22.9938 20.5126 23.2336C19.4748 23.4734 17.9181 22.3943 17.6298 22.1544C17.3992 21.9746 13.3057 19.2768 11.8643 17.9579C11.4607 17.5981 10.9994 16.8787 11.9219 16.0394L17.9758 10.0443C18.6676 9.32485 19.3595 7.64621 16.4767 9.68457L8.40493 15.38C8.40493 15.38 7.48244 15.9794 5.7528 15.4399L2.00515 14.2409C2.00515 14.2409 0.621413 13.3416 2.9853 12.4423C8.75089 9.62457 15.8425 6.7469 22.127 4.04911Z" fill="#16182A"/>
</svg>
