<svg width="40" height="40" viewBox="0 0 40 40" fill="none" xmlns="http://www.w3.org/2000/svg">
<path d="M28.7111 11.6974C28.7111 11.6974 30.6538 10.9311 30.4919 12.7923C30.4379 13.5587 29.9523 16.2411 29.5745 19.1425L28.2794 27.7371C28.2794 27.7371 28.1715 28.9961 27.2002 29.2151C26.2288 29.4341 24.7719 28.4487 24.502 28.2297C24.2862 28.0655 20.4549 25.6021 19.1058 24.3978C18.728 24.0693 18.2963 23.4124 19.1597 22.646L24.8258 17.1717C25.4734 16.5148 26.1209 14.982 23.4228 16.8433L15.868 22.0438C15.868 22.0438 15.0046 22.5912 13.3858 22.0986L9.87818 21.0037C9.87818 21.0037 8.58307 20.1826 10.7955 19.3614C16.1918 16.7885 22.8292 14.1608 28.7111 11.6974Z" fill="#EEA245"/>
<circle cx="20.0015" cy="20" r="19.5" stroke="#EEA245"/>
</svg>
