<svg width="19" height="19" viewBox="0 0 19 19" fill="none" xmlns="http://www.w3.org/2000/svg">
<g clip-path="url(#clip0_320_1938)">
<path d="M10.915 17.7701H10.1156V12.9125H13.559C14.4575 12.9125 15.1885 12.1816 15.1885 11.2831C15.1885 10.3846 14.4575 9.6536 13.559 9.6536H10.1156V5.67742H18.0253C18.2489 5.67742 18.4549 5.556 18.5632 5.3603C18.6715 5.16467 18.6651 4.92554 18.5463 4.73605C17.0269 2.3109 13.7592 0.699801 10.1101 0.537246C10.072 0.234397 9.81395 0 9.50074 0C9.18753 0 8.92952 0.234397 8.89127 0.537246C5.24224 0.699801 1.97456 2.3109 0.455138 4.73605C0.336404 4.92554 0.329943 5.16467 0.438249 5.3603C0.546555 5.556 0.752549 5.67742 0.976198 5.67742H8.88583V9.65366H5.44254C4.54404 9.65366 3.81308 10.3846 3.81308 11.2831C3.81308 12.1816 4.54404 12.9126 5.44254 12.9126H8.88589V17.7702H8.08655C7.74698 17.7702 7.47164 18.0455 7.47164 18.3851C7.47164 18.7247 7.74698 19 8.08655 19H10.915C11.2546 19 11.5299 18.7247 11.5299 18.3851C11.5299 18.0455 11.2546 17.7701 10.915 17.7701ZM9.50074 1.75241C12.4555 1.75241 15.1677 2.78289 16.7655 4.4476H2.23602C3.83375 2.78289 6.54595 1.75241 9.50074 1.75241ZM5.04284 11.2831C5.04284 11.0627 5.22216 10.8834 5.44254 10.8834H13.559C13.7794 10.8834 13.9587 11.0627 13.9587 11.2831C13.9587 11.5035 13.7794 11.6828 13.559 11.6828H5.44254C5.22216 11.6828 5.04284 11.5034 5.04284 11.2831Z" fill="#16182A"/>
<path d="M6.12477 14.1938C6.06227 13.9124 5.81271 13.7123 5.52451 13.7123H2.53217V7.22526C2.53217 6.88569 2.25683 6.61035 1.91726 6.61035C1.57769 6.61035 1.30235 6.88569 1.30235 7.22526V14.2597L0.415173 18.252C0.341476 18.5835 0.55054 18.912 0.882048 18.9856C0.926957 18.9956 0.971802 19.0004 1.01601 19.0004C1.29781 19.0004 1.55197 18.8053 1.61563 18.5187L2.41049 14.942H5.03134L5.82621 18.5187C5.88986 18.8053 6.14396 19.0004 6.42583 19.0004C6.47003 19.0004 6.51488 18.9956 6.55979 18.9856C6.89129 18.9119 7.10036 18.5835 7.02666 18.252L6.12477 14.1938Z" fill="#16182A"/>
<path d="M17.7 14.2597V7.22526C17.7 6.88569 17.4247 6.61035 17.0851 6.61035C16.7456 6.61035 16.4702 6.88569 16.4702 7.22526V13.7123H13.4778C13.1897 13.7123 12.9401 13.9124 12.8775 14.1938L11.9757 18.252C11.902 18.5834 12.1111 18.9119 12.4426 18.9856C12.4875 18.9955 12.5323 19.0003 12.5766 19.0003C12.8584 19.0003 13.1125 18.8053 13.1762 18.5187L13.971 14.9419H16.5919L17.3868 18.5187C17.4504 18.8053 17.7045 19.0003 17.9864 19.0003C18.0306 19.0003 18.0754 18.9955 18.1203 18.9856C18.4518 18.9119 18.6609 18.5834 18.5872 18.252L17.7 14.2597Z" fill="#16182A"/>
</g>
<defs>
<clipPath id="clip0_320_1938">
<rect width="19" height="19" fill="white"/>
</clipPath>
</defs>
</svg>
