<svg width="30" height="17" viewBox="0 0 30 17" fill="none" xmlns="http://www.w3.org/2000/svg">
<path d="M28.9272 15.2245C28.8927 15.1474 28.8606 15.0834 28.8307 15.0322C28.3364 14.1089 27.3917 12.9756 25.9973 11.6321L25.9679 11.6013L25.9531 11.5862L25.9382 11.5707H25.9232C25.2904 10.9451 24.8896 10.5245 24.7218 10.3091C24.4147 9.89883 24.3459 9.48356 24.5138 9.06279C24.6323 8.74488 25.0777 8.07351 25.8489 7.04775C26.2545 6.50413 26.5758 6.06843 26.813 5.74018C28.524 3.38121 29.2659 1.8738 29.0383 1.21735L28.9499 1.06394C28.8905 0.971588 28.7372 0.8871 28.4903 0.810048C28.2428 0.733158 27.9264 0.720442 27.5406 0.771684L23.2684 0.802289C23.1992 0.776856 23.1004 0.779227 22.9716 0.810048C22.843 0.840869 22.7787 0.856333 22.7787 0.856333L22.7043 0.894859L22.6453 0.941144C22.5958 0.971749 22.5414 1.02558 22.4821 1.10252C22.423 1.1792 22.3736 1.26918 22.3341 1.37172C21.8689 2.61268 21.3401 3.76647 20.7466 4.83302C20.3807 5.46899 20.0446 6.02016 19.7377 6.48683C19.4312 6.95335 19.174 7.29706 18.9665 7.51739C18.7587 7.73793 18.5711 7.91461 18.4027 8.04807C18.2345 8.18159 18.1061 8.23801 18.0172 8.21737C17.9281 8.19674 17.8442 8.17626 17.7647 8.15578C17.6264 8.06343 17.5151 7.93783 17.4312 7.77888C17.3469 7.61992 17.2901 7.41986 17.2605 7.17884C17.231 6.93766 17.2135 6.73022 17.2085 6.5558C17.2039 6.3816 17.206 6.13519 17.2161 5.81729C17.2263 5.49922 17.231 5.28401 17.231 5.17118C17.231 4.7814 17.2383 4.35837 17.253 3.90198C17.268 3.4456 17.2801 3.08399 17.2902 2.8176C17.3003 2.55094 17.305 2.26881 17.305 1.97138C17.305 1.67395 17.2875 1.44069 17.253 1.27139C17.2189 1.10231 17.1666 0.938181 17.0976 0.779066C17.0283 0.620113 16.9268 0.497153 16.7935 0.409863C16.6601 0.322682 16.4941 0.253496 16.2966 0.202093C15.7724 0.0790791 15.1049 0.0125343 14.2938 0.00218891C12.4544 -0.0182864 11.2725 0.104889 10.7484 0.371553C10.5407 0.484221 10.3528 0.638163 10.1847 0.832894C10.0067 1.05861 9.98183 1.18178 10.1104 1.20204C10.7038 1.29424 11.124 1.51478 11.3712 1.86345L11.4603 2.04821C11.5297 2.18152 11.5989 2.41752 11.6681 2.7559C11.7373 3.09429 11.7819 3.46861 11.8016 3.87865C11.8509 4.62746 11.8509 5.26844 11.8016 5.80166C11.752 6.3351 11.7053 6.75037 11.6606 7.0478C11.616 7.34523 11.5493 7.58625 11.4603 7.7708C11.3712 7.9554 11.312 8.06823 11.2822 8.10918C11.2526 8.15013 11.2278 8.17594 11.2082 8.18607C11.0797 8.23715 10.946 8.26317 10.8076 8.26317C10.669 8.26317 10.501 8.19129 10.3032 8.04764C10.1055 7.90399 9.90036 7.70668 9.6877 7.45537C9.47503 7.20401 9.23519 6.85275 8.96808 6.40154C8.70117 5.95032 8.42423 5.41705 8.13742 4.80171L7.90013 4.35546C7.75179 4.06837 7.54915 3.65035 7.29201 3.10178C7.03472 2.55298 6.8073 2.02213 6.6096 1.50933C6.53057 1.29397 6.41184 1.13 6.25363 1.01717L6.17938 0.970887C6.13002 0.929936 6.05079 0.886453 5.94209 0.840114C5.83324 0.793829 5.71966 0.760637 5.60088 0.740216L1.53626 0.770822C1.1209 0.770822 0.839082 0.868402 0.69069 1.0633L0.631302 1.15549C0.601634 1.20684 0.58667 1.28885 0.58667 1.40173C0.58667 1.51456 0.616338 1.65304 0.675726 1.817C1.26909 3.26321 1.91435 4.65795 2.61153 6.00146C3.3087 7.34496 3.91453 8.42719 4.42866 9.24717C4.94289 10.0677 5.46704 10.8422 6.00112 11.5702C6.53519 12.2984 6.88871 12.7651 7.06168 12.9701C7.23486 13.1755 7.37089 13.329 7.46976 13.4316L7.84069 13.8007C8.07803 14.0469 8.42657 14.3418 8.88645 14.6853C9.34643 15.029 9.85568 15.3674 10.4144 15.7009C10.9733 16.034 11.6234 16.3058 12.3652 16.516C13.107 16.7264 13.8289 16.8108 14.5311 16.7701H16.2371C16.583 16.7391 16.8452 16.6263 17.0233 16.4315L17.0824 16.3544C17.1221 16.2932 17.1592 16.1981 17.1935 16.0701C17.2282 15.942 17.2455 15.8007 17.2455 15.6471C17.2353 15.2062 17.2677 14.8088 17.3417 14.455C17.4156 14.1013 17.4999 13.8347 17.5942 13.6551C17.6884 13.4757 17.7947 13.3242 17.913 13.2015C18.0315 13.0785 18.116 13.004 18.1656 12.9783C18.2148 12.9525 18.2542 12.935 18.2838 12.9245C18.5212 12.8425 18.8005 12.9219 19.1222 13.1631C19.4437 13.4041 19.7452 13.7017 20.0272 14.0554C20.3091 14.4094 20.6478 14.8066 21.0433 15.2475C21.439 15.6886 21.7851 16.0165 22.0817 16.2322L22.3782 16.4168C22.5763 16.5399 22.8334 16.6528 23.15 16.7553C23.4659 16.8578 23.7428 16.8834 23.9805 16.8322L27.7779 16.7708C28.1535 16.7708 28.4458 16.7063 28.6531 16.5783C28.8608 16.4501 28.9842 16.3089 29.024 16.1553C29.0637 16.0015 29.0659 15.827 29.0316 15.632C28.9964 15.4374 28.9617 15.3013 28.9272 15.2245Z" fill="#16182A"/>
</svg>
