<svg width="40" height="40" viewBox="0 0 40 40" fill="none" xmlns="http://www.w3.org/2000/svg">
<path d="M30.2954 24.8263C30.2712 24.7735 30.2486 24.7297 30.2277 24.6946C29.8807 24.0623 29.2176 23.2862 28.2387 22.3661L28.2181 22.345L28.2077 22.3347L28.1972 22.3241H28.1867C27.7425 21.8957 27.4612 21.6076 27.3434 21.4601C27.1278 21.1791 27.0795 20.8947 27.1973 20.6066C27.2806 20.3889 27.5932 19.9291 28.1345 19.2266C28.4193 18.8543 28.6448 18.5559 28.8113 18.3311C30.0124 16.7156 30.5331 15.6833 30.3734 15.2337L30.3113 15.1287C30.2696 15.0654 30.162 15.0075 29.9887 14.9548C29.8149 14.9021 29.5929 14.8934 29.322 14.9285L26.3231 14.9495C26.2746 14.932 26.2052 14.9337 26.1148 14.9548C26.0245 14.9759 25.9794 14.9865 25.9794 14.9865L25.9272 15.0129L25.8858 15.0446C25.851 15.0655 25.8128 15.1024 25.7712 15.1551C25.7297 15.2076 25.695 15.2692 25.6673 15.3394C25.3408 16.1893 24.9696 16.9794 24.5529 17.7099C24.2961 18.1454 24.0602 18.5229 23.8447 18.8425C23.6296 19.1619 23.4491 19.3973 23.3034 19.5482C23.1575 19.6993 23.0258 19.8203 22.9076 19.9117C22.7895 20.0031 22.6994 20.0417 22.637 20.0276C22.5745 20.0135 22.5156 19.9994 22.4598 19.9854C22.3627 19.9222 22.2845 19.8362 22.2256 19.7273C22.1665 19.6184 22.1266 19.4814 22.1058 19.3164C22.0851 19.1512 22.0729 19.0091 22.0694 18.8897C22.0661 18.7704 22.0676 18.6016 22.0746 18.3839C22.0819 18.1661 22.0851 18.0187 22.0851 17.9414C22.0851 17.6745 22.0903 17.3848 22.1006 17.0723C22.1111 16.7597 22.1196 16.5121 22.1267 16.3296C22.1338 16.147 22.137 15.9538 22.137 15.7501C22.137 15.5464 22.1248 15.3867 22.1006 15.2707C22.0766 15.1549 22.0399 15.0425 21.9915 14.9336C21.9428 14.8247 21.8716 14.7405 21.778 14.6807C21.6843 14.621 21.5679 14.5736 21.4292 14.5384C21.0613 14.4542 20.5927 14.4086 20.0233 14.4015C18.7322 14.3875 17.9025 14.4719 17.5346 14.6545C17.3888 14.7316 17.2569 14.8371 17.1389 14.9704C17.0139 15.125 16.9965 15.2094 17.0867 15.2232C17.5033 15.2864 17.7982 15.4374 17.9718 15.6762L18.0344 15.8027C18.083 15.894 18.1316 16.0556 18.1802 16.2874C18.2288 16.5191 18.2601 16.7755 18.2739 17.0563C18.3085 17.5691 18.3085 18.0081 18.2739 18.3732C18.2391 18.7385 18.2063 19.0229 18.175 19.2266C18.1436 19.4303 18.0968 19.5954 18.0344 19.7218C17.9718 19.8482 17.9302 19.9255 17.9093 19.9535C17.8885 19.9815 17.8712 19.9992 17.8574 20.0062C17.7671 20.0411 17.6733 20.059 17.5762 20.059C17.4789 20.059 17.3609 20.0097 17.2221 19.9114C17.0834 19.813 16.9393 19.6779 16.79 19.5057C16.6408 19.3336 16.4724 19.093 16.2849 18.784C16.0975 18.475 15.9031 18.1098 15.7018 17.6884L15.5352 17.3828C15.4311 17.1862 15.2889 16.8999 15.1084 16.5242C14.9278 16.1484 14.7681 15.7849 14.6293 15.4337C14.5739 15.2862 14.4905 15.1739 14.3795 15.0966L14.3273 15.0649C14.2927 15.0369 14.2371 15.0071 14.1608 14.9754C14.0844 14.9437 14.0046 14.9209 13.9213 14.907L11.0681 14.9279C10.7765 14.9279 10.5787 14.9947 10.4745 15.1282L10.4328 15.1913C10.412 15.2265 10.4015 15.2827 10.4015 15.36C10.4015 15.4373 10.4223 15.5321 10.464 15.6444C10.8805 16.6348 11.3335 17.59 11.8229 18.5101C12.3122 19.4301 12.7375 20.1713 13.0984 20.7328C13.4594 21.2948 13.8273 21.8252 14.2022 22.3237C14.5771 22.8224 14.8253 23.142 14.9467 23.2824C15.0682 23.4231 15.1637 23.5283 15.2331 23.5985L15.4935 23.8513C15.6601 24.0199 15.9048 24.2218 16.2276 24.4571C16.5505 24.6924 16.908 24.9242 17.3002 25.1526C17.6925 25.3807 18.1489 25.5668 18.6696 25.7108C19.1902 25.8549 19.697 25.9127 20.1899 25.8848H21.3874C21.6303 25.8636 21.8143 25.7863 21.9394 25.653L21.9808 25.6002C22.0087 25.5582 22.0347 25.4931 22.0588 25.4055C22.0832 25.3177 22.0953 25.221 22.0953 25.1158C22.0882 24.8138 22.1109 24.5417 22.1628 24.2994C22.2147 24.0572 22.2739 23.8745 22.3401 23.7515C22.4062 23.6287 22.4808 23.525 22.5638 23.4409C22.6471 23.3567 22.7064 23.3056 22.7412 23.2881C22.7758 23.2704 22.8034 23.2584 22.8242 23.2512C22.9908 23.195 23.1869 23.2494 23.4127 23.4146C23.6384 23.5797 23.85 23.7835 24.048 24.0257C24.2458 24.2682 24.4836 24.5402 24.7612 24.8421C25.039 25.1442 25.2819 25.3687 25.4901 25.5164L25.6983 25.6429C25.8373 25.7272 26.0178 25.8045 26.24 25.8747C26.4618 25.9449 26.6561 25.9625 26.823 25.9274L29.4886 25.8853C29.7523 25.8853 29.9575 25.8411 30.103 25.7535C30.2488 25.6657 30.3354 25.569 30.3634 25.4638C30.3912 25.3585 30.3927 25.239 30.3687 25.1054C30.344 24.9721 30.3196 24.879 30.2954 24.8263Z" fill="#EEA245"/>
<circle cx="20.0015" cy="20" r="19.5" stroke="#EEA245"/>
</svg>
