<svg width="21" height="21" viewBox="0 0 21 21" fill="none" xmlns="http://www.w3.org/2000/svg">
<path fill-rule="evenodd" clip-rule="evenodd" d="M16.4194 14.1715C16.1791 14.8561 15.2238 15.4225 14.4619 15.5882C13.9404 15.6996 13.2603 15.7877 10.9687 14.832C8.39487 13.7589 4.82089 9.93631 4.82089 7.3925C4.82089 6.09751 5.56281 4.58956 6.86018 4.58956C7.48443 4.58956 7.62204 4.60182 7.82747 5.09772C8.0678 5.68198 8.65416 7.12145 8.72396 7.26902C9.01216 7.87435 8.43077 8.22871 8.00895 8.75575C7.87433 8.91435 7.72177 9.08589 7.89229 9.38102C8.06182 9.67014 8.64817 10.6319 9.50976 11.4038C10.6226 12.4017 11.5251 12.7203 11.8482 12.8558C12.0885 12.9562 12.3757 12.9328 12.5512 12.7441C12.7736 12.5021 13.0498 12.1007 13.3311 11.7052C13.5295 11.4221 13.7818 11.3868 14.0461 11.4871C14.2246 11.5494 16.4932 12.6097 16.5889 12.7793C16.6597 12.9028 16.6598 13.4868 16.4194 14.1715ZM10.6167 0H10.6117C5.11406 0 0.642578 4.50136 0.642578 10.0357C0.642578 12.2302 1.34562 14.2661 2.54127 15.9174L1.29875 19.6465L5.13102 18.4141C6.70761 19.4642 8.58933 20.0714 10.6167 20.0714C16.1143 20.0714 20.5868 15.57 20.5868 10.0357C20.5868 4.50136 16.1143 0 10.6167 0Z" fill="#16182A"/>
</svg>
