<svg width="40" height="40" viewBox="0 0 40 40" fill="none" xmlns="http://www.w3.org/2000/svg">
<path fill-rule="evenodd" clip-rule="evenodd" d="M24.5478 22.9948C24.3567 23.526 23.597 23.9654 22.9911 24.0939C22.5763 24.1804 22.0355 24.2488 20.2131 23.5073C18.1664 22.6747 15.3242 19.709 15.3242 17.7354C15.3242 16.7307 15.9142 15.5608 16.9459 15.5608C17.4424 15.5608 17.5518 15.5703 17.7151 15.955C17.9063 16.4083 18.3726 17.5251 18.4281 17.6396C18.6573 18.1092 18.1949 18.3842 17.8595 18.7931C17.7524 18.9161 17.6311 19.0492 17.7667 19.2782C17.9015 19.5025 18.3678 20.2486 19.053 20.8476C19.938 21.6217 20.6557 21.8689 20.9126 21.974C21.1037 22.0519 21.3321 22.0338 21.4717 21.8873C21.6485 21.6996 21.8682 21.3882 22.0918 21.0814C22.2496 20.8617 22.4503 20.8343 22.6604 20.9122C22.8024 20.9605 24.6065 21.7831 24.6826 21.9147C24.7389 22.0105 24.7389 22.4636 24.5478 22.9948ZM19.9332 12H19.9292C15.5573 12 12.0015 15.4923 12.0015 19.7861C12.0015 21.4886 12.5605 23.0682 13.5114 24.3494L12.5233 27.2426L15.5708 26.2864C16.8246 27.1011 18.321 27.5722 19.9332 27.5722C24.3051 27.5722 27.8618 24.0798 27.8618 19.7861C27.8618 15.4923 24.3051 12 19.9332 12Z" fill="#EEA245"/>
<circle cx="20.0015" cy="20" r="19.5" stroke="#EEA245"/>
</svg>
