<svg width="24" height="24" viewBox="0 0 24 24" fill="none" xmlns="http://www.w3.org/2000/svg">
<g clip-path="url(#clip0_318_2111)">
<path d="M13.1763 -0.000488281C7.2083 -0.000488281 2.35289 4.85492 2.35289 10.8229C2.35289 12.9379 2.96316 14.9128 4.01616 16.5817L0.704252 19.8936C-0.235076 20.8329 -0.235076 22.3558 0.704252 23.295C1.64358 24.2344 3.16646 24.2344 4.10569 23.295L7.41759 19.9831C9.08658 21.0361 11.0614 21.6464 13.1763 21.6464C19.1444 21.6464 23.9998 16.791 23.9998 10.8229C23.9998 4.85492 19.1445 -0.000488281 13.1763 -0.000488281ZM13.1763 19.2412C8.53453 19.2412 4.7581 15.4647 4.7581 10.8229C4.7581 6.18115 8.53449 2.40471 13.1763 2.40471C17.8182 2.40471 21.5946 6.18115 21.5946 10.8229C21.5946 15.4647 17.8182 19.2412 13.1763 19.2412Z" fill="white"/>
</g>
<defs>
<clipPath id="clip0_318_2111">
<rect width="24" height="24" fill="white" transform="translate(0 -0.000488281)"/>
</clipPath>
</defs>
</svg>
